<svg width="269" height="49" viewBox="0 0 269 49" fill="none" xmlns="http://www.w3.org/2000/svg">
<path fill-rule="evenodd" clip-rule="evenodd" d="M19.3302 4.06998C19.3302 1.82414 21.1571 -6.10352e-05 23.416 -6.10352e-05C25.6748 -6.10352e-05 27.5018 1.81984 27.5018 4.06998V27.9438C27.5018 30.1896 25.6748 32.0138 23.416 32.0138C21.1614 32.0138 19.3302 30.1939 19.3302 27.9438V4.06998ZM0.426636 4.07024C0.426636 1.82011 2.2579 0.00020752 4.51243 0.00020752C6.77128 0.00020752 8.60255 1.82011 8.59823 4.07024V40.828H28.3707C30.6165 40.828 32.4407 42.6549 32.4407 44.9138C32.4407 47.1726 30.6208 48.9996 28.3707 48.9996H4.56108C4.54489 48.9997 4.52867 48.9998 4.51243 48.9998C4.48394 48.9998 4.45552 48.9995 4.42716 48.999C3.38264 48.9814 2.43321 48.5686 1.72168 47.9026C0.924937 47.1603 0.426636 46.1036 0.426636 44.9298V4.07024ZM42.321 -6.10352e-05C40.0622 -6.10352e-05 38.2352 1.82414 38.2352 4.06998V27.9438C38.2352 30.1939 40.0665 32.0138 42.321 32.0138C44.5799 32.0138 46.4068 30.1896 46.4068 27.9438V4.06998C46.4068 1.81984 44.5799 -6.10352e-05 42.321 -6.10352e-05Z" fill="url(#paint0_linear_772_1120)"/>
<path d="M242.079 43.5554V38.5035L255.482 25.3646C256.764 24.0702 257.832 22.9203 258.687 21.915C259.541 20.9096 260.182 19.9357 260.61 18.9931C261.037 18.0506 261.251 17.0452 261.251 15.977C261.251 14.758 260.974 13.715 260.421 12.8478C259.868 11.9681 259.108 11.2895 258.14 10.812C257.173 10.3344 256.073 10.0957 254.841 10.0957C253.572 10.0957 252.46 10.3596 251.505 10.8874C250.55 11.4026 249.808 12.1378 249.28 13.0929C248.765 14.048 248.508 15.1853 248.508 16.5049H241.853C241.853 14.0543 242.413 11.9242 243.531 10.1145C244.649 8.30485 246.189 6.90362 248.149 5.91083C250.122 4.91803 252.384 4.42163 254.936 4.42163C257.524 4.42163 259.799 4.90546 261.759 5.87313C263.72 6.84079 265.241 8.16661 266.321 9.8506C267.415 11.5346 267.961 13.4573 267.961 15.6189C267.961 17.0641 267.685 18.4842 267.132 19.8791C266.579 21.274 265.605 22.8198 264.21 24.5163C262.828 26.2129 260.886 28.2676 258.385 30.6805L251.731 37.4478V37.7118H268.546V43.5554H242.079Z" fill="white"/>
<path d="M215.575 43.5552V4.9492H222.569V37.6927H239.572V43.5552H215.575Z" fill="white"/>
<path d="M201.459 4.9492V43.5552H194.635V4.9492H201.459Z" fill="white"/>
<path d="M175.671 44.1397C173.836 44.1397 172.183 43.8129 170.713 43.1594C169.255 42.4934 168.099 41.5131 167.244 40.2187C166.402 38.9243 165.981 37.3283 165.981 35.4307C165.981 33.797 166.283 32.446 166.886 31.3778C167.489 30.3096 168.313 29.4551 169.356 28.8141C170.399 28.1732 171.574 27.6894 172.881 27.3626C174.2 27.0233 175.564 26.7783 176.971 26.6275C178.668 26.4515 180.044 26.2944 181.1 26.1562C182.155 26.0054 182.922 25.7792 183.399 25.4776C183.889 25.1634 184.135 24.6796 184.135 24.0261V23.913C184.135 22.4929 183.714 21.3933 182.872 20.6141C182.03 19.835 180.817 19.4454 179.233 19.4454C177.562 19.4454 176.236 19.8098 175.256 20.5387C174.288 21.2676 173.635 22.1285 173.295 23.1213L166.924 22.2164C167.427 20.457 168.256 18.9867 169.412 17.8054C170.568 16.6115 171.982 15.7193 173.654 15.1286C175.325 14.5254 177.172 14.2238 179.196 14.2238C180.591 14.2238 181.979 14.3872 183.362 14.7139C184.744 15.0406 186.007 15.581 187.151 16.335C188.294 17.0765 189.212 18.0882 189.903 19.37C190.607 20.6518 190.958 22.2541 190.958 24.1769V43.5553H184.398V39.5778H184.172C183.758 40.3821 183.173 41.1361 182.419 41.8399C181.678 42.5311 180.741 43.0903 179.61 43.5176C178.492 43.9323 177.179 44.1397 175.671 44.1397ZM177.443 39.1254C178.812 39.1254 180 38.8552 181.005 38.3148C182.011 37.7619 182.784 37.033 183.324 36.1282C183.877 35.2233 184.153 34.2368 184.153 33.1686V29.7567C183.94 29.9326 183.575 30.096 183.06 30.2468C182.557 30.3976 181.992 30.5295 181.364 30.6426C180.735 30.7557 180.113 30.8563 179.497 30.9442C178.882 31.0322 178.347 31.1076 177.895 31.1705C176.877 31.3087 175.966 31.5349 175.162 31.8491C174.357 32.1632 173.723 32.6031 173.258 33.1686C172.793 33.7216 172.56 34.4379 172.56 35.3176C172.56 36.5743 173.019 37.5231 173.936 38.164C174.854 38.8049 176.023 39.1254 177.443 39.1254Z" fill="white"/>
<path d="M164.817 14.6008V19.879H148.172V14.6008H164.817ZM152.281 7.66382H159.105V34.8463C159.105 35.7637 159.243 36.4675 159.52 36.9576C159.809 37.4352 160.186 37.7619 160.651 37.9378C161.116 38.1138 161.631 38.2018 162.196 38.2018C162.624 38.2018 163.013 38.1703 163.365 38.1075C163.73 38.0447 164.006 37.9881 164.195 37.9378L165.345 43.2726C164.98 43.3982 164.459 43.5365 163.78 43.6873C163.114 43.8381 162.297 43.926 161.329 43.9512C159.62 44.0014 158.081 43.7438 156.711 43.1783C155.341 42.6002 154.254 41.708 153.45 40.5015C152.658 39.2951 152.268 37.787 152.281 35.9774V7.66382Z" fill="white"/>
<path d="M134.895 44.1208C131.992 44.1208 129.485 43.5176 127.374 42.3111C125.275 41.0921 123.66 39.3705 122.529 37.1461C121.398 34.9091 120.833 32.2764 120.833 29.2477C120.833 26.2693 121.398 23.6554 122.529 21.4059C123.673 19.1438 125.269 17.3844 127.317 16.1277C129.366 14.8584 131.773 14.2238 134.537 14.2238C136.322 14.2238 138.006 14.5128 139.589 15.0909C141.185 15.6564 142.593 16.5361 143.812 17.73C145.043 18.9239 146.011 20.4445 146.715 22.2918C147.418 24.1266 147.77 26.3133 147.77 28.8518V30.9442H124.037V26.3447H141.229C141.217 25.0377 140.934 23.8753 140.381 22.8573C139.828 21.8269 139.055 21.0163 138.062 20.4256C137.082 19.835 135.938 19.5396 134.632 19.5396C133.237 19.5396 132.011 19.879 130.956 20.5576C129.9 21.2236 129.077 22.1033 128.486 23.1967C127.908 24.2774 127.613 25.465 127.6 26.7594V30.7746C127.6 32.4586 127.908 33.9038 128.524 35.1102C129.14 36.3041 130.001 37.2215 131.106 37.8624C132.212 38.4908 133.507 38.8049 134.99 38.8049C135.982 38.8049 136.881 38.6667 137.685 38.3902C138.49 38.1012 139.187 37.6802 139.778 37.1272C140.368 36.5743 140.815 35.8894 141.116 35.0725L147.488 35.7888C147.085 37.4728 146.319 38.9432 145.188 40.1999C144.069 41.444 142.637 42.4117 140.89 43.1029C139.143 43.7815 137.145 44.1208 134.895 44.1208Z" fill="white"/>
<path d="M77.4569 4.9492H86.0151L97.4762 32.9235H97.9286L109.39 4.9492H117.948V43.5552H111.237V17.0324H110.879L100.21 43.4421H95.1953L84.5259 16.9759H84.1677V43.5552H77.4569V4.9492Z" fill="white"/>
<defs>
<linearGradient id="paint0_linear_772_1120" x1="0.426636" y1="24.4999" x2="46.4069" y2="-2.78775e-05" gradientUnits="userSpaceOnUse">
<stop stop-color="#4400E2"/>
<stop offset="0.421875" stop-color="#F94E6C"/>
<stop offset="1" stop-color="#FFCB00"/>
</linearGradient>
</defs>
</svg>
