<svg width="48" height="48" viewBox="0 0 48 48" fill="none" xmlns="http://www.w3.org/2000/svg">
<path d="M43.0331 0H4.96535C2.22613 0 0 2.22613 0 4.96536V43.0331C0 45.7723 2.22613 47.9984 4.96535 47.9984H43.0331C45.7723 47.9984 47.9984 45.7723 47.9984 43.0331V4.96536C47.9984 2.22613 45.7723 0 43.0331 0Z" fill="url(#paint0_linear_772_722)"/>
<path fill-rule="evenodd" clip-rule="evenodd" d="M11.3873 10.841C12.9413 10.841 14.2011 12.1008 14.2011 13.6548V34.3444C14.2011 35.8984 12.9413 37.1582 11.3873 37.1582C9.83329 37.1582 8.57352 35.8984 8.57352 34.3444V13.6548C8.57352 12.1008 9.83329 10.841 11.3873 10.841Z" fill="white"/>
<path fill-rule="evenodd" clip-rule="evenodd" d="M36.6113 10.841C38.1654 10.841 39.4251 12.1008 39.4251 13.6548V34.3444C39.4251 35.8984 38.1654 37.1582 36.6113 37.1582C35.0573 37.1582 33.7975 35.8984 33.7975 34.3444V13.6548C33.7975 12.1008 35.0573 10.841 36.6113 10.841Z" fill="white"/>
<path fill-rule="evenodd" clip-rule="evenodd" d="M9.6137 11.4704C10.8201 10.4909 12.5922 10.6748 13.5717 11.8812L26.1841 27.415C27.1637 28.6214 26.9798 30.3935 25.7733 31.3731C24.5669 32.3526 22.7948 32.1687 21.8153 30.9622L9.20288 15.4284C8.22334 14.222 8.40727 12.4499 9.6137 11.4704Z" fill="white"/>
<path fill-rule="evenodd" clip-rule="evenodd" d="M38.3854 11.4704C39.5918 12.4499 39.7757 14.222 38.7962 15.4284L26.1838 30.9622C25.2042 32.1687 23.4322 32.3526 22.2257 31.3731C21.0193 30.3935 20.8354 28.6214 21.8149 27.415L34.4273 11.8812C35.4069 10.6748 37.1789 10.4909 38.3854 11.4704Z" fill="white"/>
<defs>
<linearGradient id="paint0_linear_772_722" x1="-0.446881" y1="1.59719" x2="46.7157" y2="44.8123" gradientUnits="userSpaceOnUse">
<stop stop-color="#FC9237"/>
<stop offset="0.48" stop-color="#7013C5"/>
<stop offset="1" stop-color="#20BF55"/>
</linearGradient>
</defs>
</svg>
