<svg width="48" height="48" viewBox="0 0 48 48" fill="none" xmlns="http://www.w3.org/2000/svg">
<path fill-rule="evenodd" clip-rule="evenodd" d="M4.96535 0H43.0331C45.7723 0 47.9984 2.22613 47.9984 4.96536V43.0331C47.9984 45.7723 45.7723 47.9984 43.0331 47.9984H4.96535C2.22613 47.9984 0 45.7723 0 43.0331V4.96536C0 2.22613 2.22613 0 4.96535 0ZM9.49702 11.5704C9.88844 11.2152 10.3803 10.9688 10.925 10.8788C11.0983 10.8501 11.2733 10.8378 11.4478 10.8416C12.2641 10.8588 12.9949 11.2237 13.4981 11.7941C13.5288 11.8289 13.5586 11.8645 13.5876 11.9007L23.9995 24.7243L34.3956 11.9203C34.4789 11.814 34.5697 11.7138 34.6672 11.6206C34.8463 11.449 35.0439 11.3051 35.2539 11.1895C36.2276 10.6537 37.4694 10.7268 38.3853 11.4704C38.7956 11.8035 39.0876 12.2282 39.2558 12.6912C39.3189 12.8644 39.3655 13.0455 39.3937 13.2327C39.4175 13.3898 39.428 13.5489 39.4251 13.708V34.3444C39.4251 35.8984 38.1654 37.1582 36.6113 37.1582C35.0573 37.1582 33.7975 35.8984 33.7975 34.3444V21.5848L26.2301 30.9051C26.1337 31.0302 26.0255 31.1486 25.9057 31.2587C25.7252 31.4253 25.527 31.5645 25.3167 31.6758C24.9032 31.8953 24.4503 32.0028 23.9995 32.0025C23.5488 32.0028 23.0959 31.8953 22.6824 31.6758C22.4721 31.5646 22.2738 31.4253 22.0933 31.2587C21.9736 31.1486 21.8654 31.0302 21.7689 30.9051L14.2011 21.5843V34.3444C14.2011 35.8984 12.9413 37.1582 11.3873 37.1582C9.83326 37.1582 8.57349 35.8984 8.57349 34.3444V13.6751C8.57328 13.6433 8.5736 13.6116 8.57446 13.5799C8.58538 13.1622 8.68729 12.7673 8.8611 12.4141C9.01374 12.1028 9.22635 11.8155 9.49702 11.5704Z" fill="white"/>
</svg>
