<svg width="65" height="64" viewBox="0 0 65 64" fill="none" xmlns="http://www.w3.org/2000/svg">
<path fill-rule="evenodd" clip-rule="evenodd" d="M7.48248 1.18086C5.90793 -0.393688 3.35508 -0.393687 1.78052 1.18086C0.205972 2.75542 0.205971 5.30827 1.78052 6.88282L23.2769 28.3792C24.8515 29.9538 27.4043 29.9538 28.9789 28.3792C30.5534 26.8047 30.5534 24.2518 28.9789 22.6772L7.48248 1.18086ZM10.212 47.8303C8.63748 49.4049 8.63748 51.9577 10.212 53.5323C11.7866 55.1068 14.3394 55.1068 15.914 53.5323L28.5723 40.8739C30.1469 39.2994 30.1469 36.7465 28.5723 35.172C26.9978 33.5974 24.4449 33.5974 22.8704 35.172L10.212 47.8303ZM36.2203 35.6206C37.7949 34.0461 40.3478 34.0461 41.9223 35.6206L63.4187 57.117C64.9932 58.6916 64.9932 61.2444 63.4187 62.819C61.8441 64.3935 59.2913 64.3935 57.7167 62.819L36.2203 41.3226C34.6458 39.7481 34.6458 37.1952 36.2203 35.6206ZM35.7568 22.2855C34.1823 23.8601 34.1823 26.413 35.7568 27.9875C37.3314 29.5621 39.8842 29.5621 41.4588 27.9875L46.8186 22.6277C48.3932 21.0531 48.3932 18.5003 46.8186 16.9257C45.2441 15.3512 42.6912 15.3512 41.1167 16.9257L35.7568 22.2855Z" fill="black"/>
</svg>
