<svg width="64" height="64" viewBox="0 0 64 64" fill="none" xmlns="http://www.w3.org/2000/svg">
<circle cx="32" cy="31.9999" r="32" fill="black"/>
<path fill-rule="evenodd" clip-rule="evenodd" d="M32 56.5333C45.5494 56.5333 56.5333 45.5493 56.5333 31.9999C56.5333 18.4506 45.5494 7.46661 32 7.46661C18.4506 7.46661 7.46667 18.4506 7.46667 31.9999C7.46667 45.5493 18.4506 56.5333 32 56.5333ZM32 63.9999C49.6731 63.9999 64 49.6731 64 31.9999C64 14.3268 49.6731 -6.10352e-05 32 -6.10352e-05C14.3269 -6.10352e-05 0 14.3268 0 31.9999C0 49.6731 14.3269 63.9999 32 63.9999Z" fill="url(#paint0_linear_844_116)"/>
<path d="M31.775 50.6499C24.325 50.6499 19.55 47.6749 18.1 43.7249C17.85 43.0749 17.7 42.3749 17.7 41.6999C17.7 39.6999 19.075 38.3749 21.025 38.3749C22.575 38.3749 23.6 38.9749 24.5 40.5749C25.675 43.3249 28.5 44.5749 31.95 44.5749C36 44.5749 38.75 42.6249 38.75 39.9749C38.75 37.5999 37.05 36.2499 32.525 35.3249L28.7 34.5749C21.5 33.1499 17.975 29.6999 17.975 24.3249C17.975 17.7249 23.725 13.3499 31.75 13.3499C38.35 13.3499 43.325 16.1249 44.925 20.8249C45.1 21.3249 45.2 21.8499 45.2 22.4999C45.2 24.2999 43.9 25.5249 41.975 25.5249C40.275 25.5249 39.225 24.8499 38.375 23.2999C37.175 20.5749 34.85 19.4499 31.75 19.4499C28.025 19.4499 25.55 21.1999 25.55 23.8499C25.55 26.0749 27.275 27.4499 31.55 28.2999L35.35 29.0749C43 30.5999 46.3 33.6749 46.3 39.1499C46.3 46.1999 40.775 50.6499 31.775 50.6499Z" fill="white"/>
<path d="M28.3 11.0333C28.3 10.3521 28.8522 9.79993 29.5333 9.79993C30.2145 9.79993 30.7667 10.3521 30.7667 11.0333V52.9666C30.7667 53.6477 30.2145 54.1999 29.5333 54.1999C28.8522 54.1999 28.3 53.6477 28.3 52.9666V11.0333Z" fill="white"/>
<path d="M33.2333 11.0333C33.2333 10.3521 33.7855 9.79993 34.4667 9.79993C35.1478 9.79993 35.7 10.3521 35.7 11.0333V52.9666C35.7 53.6477 35.1478 54.1999 34.4667 54.1999C33.7855 54.1999 33.2333 53.6477 33.2333 52.9666V11.0333Z" fill="white"/>
<defs>
<linearGradient id="paint0_linear_844_116" x1="0" y1="32.0013" x2="64" y2="32.0013" gradientUnits="userSpaceOnUse">
<stop stop-color="#7013C5"/>
<stop offset="0.35" stop-color="#7330D7"/>
<stop offset="0.5" stop-color="#7543E3"/>
<stop offset="0.65" stop-color="#F94E6C"/>
<stop offset="0.75" stop-color="#FC9237"/>
<stop offset="0.85" stop-color="#FFD305"/>
<stop offset="1" stop-color="#20BF55"/>
</linearGradient>
</defs>
</svg>
