<svg width="357" height="64" viewBox="0 0 357 64" fill="none" xmlns="http://www.w3.org/2000/svg">
<path fill-rule="evenodd" clip-rule="evenodd" d="M32.1748 56.5333C45.7242 56.5333 56.7082 45.5493 56.7082 31.9999C56.7082 18.4506 45.7242 7.46661 32.1748 7.46661C18.6254 7.46661 7.64147 18.4506 7.64147 31.9999C7.64147 45.5493 18.6254 56.5333 32.1748 56.5333ZM32.1748 63.9999C49.8479 63.9999 64.1748 49.6731 64.1748 31.9999C64.1748 14.3268 49.8479 -6.10352e-05 32.1748 -6.10352e-05C14.5017 -6.10352e-05 0.174805 14.3268 0.174805 31.9999C0.174805 49.6731 14.5017 63.9999 32.1748 63.9999Z" fill="url(#paint0_linear_772_996)"/>
<path d="M31.9495 50.6499C24.4995 50.6499 19.7245 47.6749 18.2745 43.7249C18.0245 43.0749 17.8745 42.3749 17.8745 41.6999C17.8745 39.6999 19.2495 38.3749 21.1995 38.3749C22.7495 38.3749 23.7745 38.9749 24.6745 40.5749C25.8495 43.3249 28.6745 44.5749 32.1245 44.5749C36.1745 44.5749 38.9245 42.6249 38.9245 39.9749C38.9245 37.5999 37.2245 36.2499 32.6995 35.3249L28.8745 34.5749C21.6745 33.1499 18.1495 29.6999 18.1495 24.3249C18.1495 17.7249 23.8995 13.3499 31.9245 13.3499C38.5245 13.3499 43.4995 16.1249 45.0995 20.8249C45.2745 21.3249 45.3745 21.8499 45.3745 22.4999C45.3745 24.2999 44.0745 25.5249 42.1495 25.5249C40.4495 25.5249 39.3995 24.8499 38.5495 23.2999C37.3495 20.5749 35.0245 19.4499 31.9245 19.4499C28.1995 19.4499 25.7245 21.1999 25.7245 23.8499C25.7245 26.0749 27.4495 27.4499 31.7245 28.2999L35.5245 29.0749C43.1745 30.5999 46.4745 33.6749 46.4745 39.1499C46.4745 46.1999 40.9495 50.6499 31.9495 50.6499Z" fill="white"/>
<path d="M28.4745 11.0332C28.4745 10.3521 29.0267 9.79991 29.7078 9.79991C30.389 9.79991 30.9412 10.3521 30.9412 11.0332V52.9666C30.9412 53.6477 30.389 54.1999 29.7078 54.1999C29.0267 54.1999 28.4745 53.6477 28.4745 52.9666V11.0332Z" fill="white"/>
<path d="M33.4078 11.0332C33.4078 10.3521 33.96 9.79991 34.6412 9.79991C35.3223 9.79991 35.8745 10.3521 35.8745 11.0332V52.9666C35.8745 53.6477 35.3223 54.1999 34.6412 54.1999C33.96 54.1999 33.4078 53.6477 33.4078 52.9666V11.0332Z" fill="white"/>
<path d="M340.288 50.6665V22.3029H346.77V27.0302H347.065C347.582 25.3928 348.469 24.131 349.724 23.2446C350.992 22.346 352.439 21.8966 354.064 21.8966C354.433 21.8966 354.846 21.9151 355.301 21.952C355.769 21.9766 356.157 22.0197 356.464 22.0813V28.2304C356.181 28.132 355.732 28.0458 355.116 27.9719C354.513 27.8857 353.928 27.8427 353.362 27.8427C352.143 27.8427 351.048 28.1073 350.075 28.6367C349.115 29.1537 348.358 29.8739 347.804 30.7972C347.25 31.7205 346.973 32.7854 346.973 33.9918V50.6665H340.288Z" fill="white"/>
<path d="M321.711 51.239C319.914 51.239 318.295 50.9189 316.854 50.2787C315.426 49.6263 314.294 48.6661 313.457 47.3981C312.632 46.1301 312.219 44.5666 312.219 42.7077C312.219 41.1073 312.515 39.784 313.106 38.7376C313.697 37.6911 314.503 36.854 315.525 36.2262C316.547 35.5983 317.698 35.1244 318.978 34.8043C320.271 34.4719 321.606 34.2319 322.985 34.0841C324.647 33.9118 325.995 33.7579 327.029 33.6225C328.063 33.4748 328.814 33.2532 329.282 32.9577C329.762 32.65 330.002 32.176 330.002 31.5358V31.4251C330.002 30.034 329.59 28.9568 328.765 28.1935C327.94 27.4303 326.752 27.0486 325.201 27.0486C323.564 27.0486 322.265 27.4056 321.305 28.1197C320.357 28.8337 319.717 29.6769 319.384 30.6495L313.143 29.7631C313.635 28.0396 314.448 26.5993 315.58 25.4421C316.713 24.2726 318.098 23.3985 319.735 22.8199C321.372 22.229 323.182 21.9336 325.164 21.9336C326.53 21.9336 327.891 22.0936 329.245 22.4137C330.599 22.7338 331.836 23.2631 332.957 24.0018C334.077 24.7281 334.976 25.7191 335.653 26.9748C336.342 28.2304 336.687 29.8001 336.687 31.6836V50.6665H330.261V46.7702H330.039C329.633 47.5581 329.06 48.2967 328.322 48.9861C327.595 49.6632 326.678 50.211 325.57 50.6296C324.475 51.0358 323.188 51.239 321.711 51.239ZM323.447 46.327C324.789 46.327 325.952 46.0624 326.937 45.533C327.922 44.9913 328.679 44.2773 329.208 43.391C329.75 42.5046 330.021 41.5382 330.021 40.4918V37.1495C329.811 37.3218 329.454 37.4819 328.95 37.6296C328.457 37.7773 327.903 37.9066 327.288 38.0174C326.672 38.1282 326.063 38.2267 325.459 38.3128C324.856 38.399 324.333 38.4729 323.89 38.5344C322.893 38.6698 322 38.8914 321.212 39.1992C320.424 39.507 319.803 39.9378 319.347 40.4918C318.892 41.0335 318.664 41.7352 318.664 42.5969C318.664 43.828 319.113 44.7574 320.012 45.3853C320.911 46.0131 322.056 46.327 323.447 46.327Z" fill="white"/>
<path d="M309.795 12.8483V50.6665H303.11V12.8483H309.795Z" fill="white"/>
<path d="M299.356 12.8483V50.6665H292.672V12.8483H299.356Z" fill="white"/>
<path d="M276.527 51.2205C273.757 51.2205 271.357 50.6111 269.326 49.3924C267.294 48.1736 265.719 46.4686 264.598 44.2773C263.49 42.086 262.936 39.5254 262.936 36.5955C262.936 33.6656 263.49 31.0988 264.598 28.8952C265.719 26.6916 267.294 24.9804 269.326 23.7617C271.357 22.5429 273.757 21.9336 276.527 21.9336C279.297 21.9336 281.698 22.5429 283.729 23.7617C285.76 24.9804 287.33 26.6916 288.438 28.8952C289.558 31.0988 290.118 33.6656 290.118 36.5955C290.118 39.5254 289.558 42.086 288.438 44.2773C287.33 46.4686 285.76 48.1736 283.729 49.3924C281.698 50.6111 279.297 51.2205 276.527 51.2205ZM276.564 45.8654C278.066 45.8654 279.322 45.453 280.331 44.6282C281.341 43.7911 282.092 42.6708 282.584 41.2674C283.089 39.864 283.341 38.3005 283.341 36.577C283.341 34.8412 283.089 33.2716 282.584 31.8682C282.092 30.4525 281.341 29.3261 280.331 28.489C279.322 27.6519 278.066 27.2333 276.564 27.2333C275.025 27.2333 273.745 27.6519 272.723 28.489C271.714 29.3261 270.957 30.4525 270.452 31.8682C269.96 33.2716 269.713 34.8412 269.713 36.577C269.713 38.3005 269.96 39.864 270.452 41.2674C270.957 42.6708 271.714 43.7911 272.723 44.6282C273.745 45.453 275.025 45.8654 276.564 45.8654Z" fill="white"/>
<path d="M242.706 50.6665H229.891V12.8483H242.965C246.719 12.8483 249.945 13.6054 252.641 15.1196C255.349 16.6215 257.43 18.782 258.882 21.6011C260.335 24.4203 261.061 27.7934 261.061 31.7204C261.061 35.6598 260.329 39.0453 258.864 41.8767C257.411 44.7081 255.312 46.881 252.567 48.3952C249.834 49.9094 246.547 50.6665 242.706 50.6665ZM236.742 44.7389H242.374C245.008 44.7389 247.206 44.2588 248.966 43.2986C250.726 42.326 252.05 40.8795 252.936 38.9591C253.823 37.0263 254.266 34.6134 254.266 31.7204C254.266 28.8275 253.823 26.4269 252.936 24.5187C252.05 22.5983 250.739 21.1641 249.003 20.2162C247.28 19.256 245.137 18.7758 242.577 18.7758H236.742V44.7389Z" fill="white"/>
<path d="M216.063 12.8483V50.6665H209.378V12.8483H216.063Z" fill="white"/>
<path d="M190.801 51.239C189.004 51.239 187.385 50.9189 185.944 50.2787C184.516 49.6263 183.384 48.6661 182.547 47.3981C181.722 46.1301 181.309 44.5666 181.309 42.7077C181.309 41.1073 181.605 39.784 182.196 38.7376C182.787 37.6911 183.593 36.854 184.615 36.2262C185.637 35.5983 186.788 35.1244 188.068 34.8043C189.361 34.4719 190.696 34.2319 192.075 34.0841C193.737 33.9118 195.085 33.7579 196.119 33.6225C197.153 33.4748 197.904 33.2532 198.372 32.9577C198.852 32.65 199.092 32.176 199.092 31.5358V31.4251C199.092 30.034 198.68 28.9568 197.855 28.1935C197.03 27.4303 195.842 27.0486 194.291 27.0486C192.654 27.0486 191.355 27.4056 190.395 28.1197C189.447 28.8337 188.807 29.6769 188.474 30.6495L182.233 29.7631C182.725 28.0396 183.538 26.5993 184.67 25.4421C185.803 24.2726 187.188 23.3985 188.825 22.8199C190.462 22.229 192.272 21.9336 194.254 21.9336C195.62 21.9336 196.981 22.0936 198.335 22.4137C199.689 22.7338 200.926 23.2631 202.047 24.0018C203.167 24.7281 204.066 25.7191 204.743 26.9748C205.432 28.2304 205.777 29.8001 205.777 31.6836V50.6665H199.351V46.7702H199.129C198.723 47.5581 198.15 48.2967 197.412 48.9861C196.685 49.6632 195.768 50.211 194.66 50.6296C193.565 51.0358 192.278 51.239 190.801 51.239ZM192.537 46.327C193.879 46.327 195.042 46.0624 196.027 45.533C197.012 44.9913 197.769 44.2773 198.298 43.391C198.84 42.5046 199.111 41.5382 199.111 40.4918V37.1495C198.901 37.3218 198.544 37.4819 198.04 37.6296C197.547 37.7773 196.993 37.9066 196.378 38.0174C195.762 38.1282 195.153 38.2267 194.549 38.3128C193.946 38.399 193.423 38.4729 192.98 38.5344C191.983 38.6698 191.09 38.8914 190.302 39.1992C189.514 39.507 188.893 39.9378 188.437 40.4918C187.982 41.0335 187.754 41.7352 187.754 42.5969C187.754 43.828 188.203 44.7574 189.102 45.3853C190.001 46.0131 191.146 46.327 192.537 46.327Z" fill="white"/>
<path d="M180.168 22.3029V27.4734H163.863V22.3029H180.168ZM167.889 15.5075H174.573V42.1353C174.573 43.034 174.709 43.7234 174.979 44.2035C175.263 44.6713 175.632 44.9914 176.087 45.1637C176.543 45.3361 177.048 45.4222 177.602 45.4222C178.02 45.4222 178.402 45.3915 178.746 45.3299C179.103 45.2684 179.374 45.213 179.559 45.1637L180.685 50.3896C180.328 50.5127 179.818 50.6481 179.153 50.7958C178.5 50.9436 177.7 51.0297 176.752 51.0543C175.078 51.1036 173.57 50.8512 172.228 50.2972C170.886 49.731 169.821 48.8569 169.033 47.6751C168.258 46.4933 167.876 45.016 167.889 43.2433V15.5075Z" fill="white"/>
<path d="M150.858 51.2205C148.014 51.2205 145.558 50.6296 143.49 49.4478C141.434 48.2537 139.852 46.5671 138.744 44.3881C137.636 42.1968 137.082 39.6178 137.082 36.6509C137.082 33.7333 137.636 31.1727 138.744 28.9691C139.864 26.7532 141.428 25.0297 143.434 23.7986C145.441 22.5553 147.798 21.9336 150.507 21.9336C152.255 21.9336 153.904 22.2167 155.456 22.783C157.019 23.337 158.398 24.1987 159.592 25.3682C160.798 26.5377 161.746 28.0273 162.436 29.837C163.125 31.6343 163.47 33.7764 163.47 36.2631V38.3128H140.221V33.8072H157.062C157.05 32.5268 156.773 31.3881 156.231 30.391C155.69 29.3815 154.932 28.5875 153.96 28.0089C153 27.4303 151.879 27.141 150.599 27.141C149.233 27.141 148.032 27.4733 146.998 28.1381C145.964 28.7906 145.158 29.6523 144.579 30.7233C144.013 31.7821 143.724 32.9454 143.711 34.2134V38.1466C143.711 39.7963 144.013 41.212 144.616 42.3938C145.219 43.5633 146.063 44.462 147.146 45.0898C148.229 45.7054 149.497 46.0131 150.95 46.0131C151.922 46.0131 152.803 45.8777 153.591 45.6069C154.378 45.3237 155.062 44.9113 155.64 44.3697C156.219 43.828 156.656 43.1571 156.951 42.3569L163.193 43.0586C162.799 44.7082 162.048 46.1485 160.94 47.3796C159.844 48.5983 158.441 49.5463 156.73 50.2233C155.019 50.8881 153.061 51.2205 150.858 51.2205Z" fill="white"/>
<path d="M94.5913 12.8482H102.975L114.202 40.2517H114.645L125.873 12.8482H134.256V50.6664H127.682V24.6849H127.331L116.88 50.5556H111.968L101.516 24.6295H101.165V50.6664H94.5913V12.8482Z" fill="white"/>
<defs>
<linearGradient id="paint0_linear_772_996" x1="0.174805" y1="32.0013" x2="64.1748" y2="32.0013" gradientUnits="userSpaceOnUse">
<stop stop-color="#7013C5"/>
<stop offset="0.35" stop-color="#7330D7"/>
<stop offset="0.5" stop-color="#7543E3"/>
<stop offset="0.65" stop-color="#F94E6C"/>
<stop offset="0.75" stop-color="#FC9237"/>
<stop offset="0.85" stop-color="#FFD305"/>
<stop offset="1" stop-color="#20BF55"/>
</linearGradient>
</defs>
</svg>
