<svg width="315" height="54" viewBox="0 0 315 54" fill="none" xmlns="http://www.w3.org/2000/svg">
<path fill-rule="evenodd" clip-rule="evenodd" d="M57.294 4.05451C57.294 1.81721 59.114 -6.10352e-05 61.3643 -6.10352e-05C63.6145 -6.10352e-05 65.4388 1.81292 65.4345 4.05451V44.7588C65.4345 46.9961 63.6145 48.8133 61.3643 48.8133C59.1183 48.8133 57.294 47.0003 57.294 44.7588V4.05451ZM0.800659 4.05475C0.800659 1.81316 2.62496 0.000178667 4.87092 0.000178667C7.12119 0.000178667 8.94549 1.81316 8.94119 4.05475V44.759C8.94119 46.9963 7.12119 48.8136 4.87092 48.8136C2.62496 48.8136 0.800659 47.0006 0.800659 44.759V4.05475ZM23.703 8.46069C21.4527 8.46069 19.6327 10.278 19.6327 12.5153V36.2983C19.6327 38.5399 21.457 40.3529 23.703 40.3529C25.9532 40.3529 27.7732 38.5356 27.7732 36.2983V12.5153C27.7732 10.2737 25.9532 8.46069 23.703 8.46069ZM38.4654 19.3429C38.4654 17.1056 40.2854 15.2884 42.5357 15.2884C44.7816 15.2884 46.6059 17.1056 46.6059 19.3429V29.3765C46.6059 31.6138 44.7816 33.431 42.5357 33.431C40.2897 33.431 38.4654 31.6181 38.4654 29.3765V19.3429Z" fill="url(#paint0_linear_772_1045)"/>
<path d="M292.801 53.9998C291.881 53.9998 291.029 53.9252 290.246 53.776C289.475 53.6393 288.86 53.4776 288.4 53.2912L289.966 48.0322C290.948 48.3181 291.825 48.4549 292.596 48.4425C293.366 48.43 294.044 48.1876 294.628 47.7152C295.225 47.2552 295.729 46.4843 296.139 45.4027L296.717 43.8549L286.33 14.6135H293.491L300.092 36.2462H300.391L307.011 14.6135H314.191L302.722 46.7268C302.187 48.2436 301.479 49.5428 300.596 50.6244C299.713 51.7184 298.632 52.5514 297.351 53.1233C296.083 53.7077 294.566 53.9998 292.801 53.9998Z" fill="black"/>
<path d="M270.869 43.8363C269.054 43.8363 267.419 43.5131 265.964 42.8666C264.522 42.2077 263.378 41.2379 262.533 39.9574C261.7 38.6768 261.283 37.0979 261.283 35.2206C261.283 33.6044 261.582 32.2679 262.179 31.2111C262.775 30.1543 263.59 29.3089 264.622 28.6749C265.653 28.0408 266.816 27.5621 268.109 27.2389C269.414 26.9032 270.763 26.6608 272.156 26.5116C273.834 26.3375 275.195 26.1821 276.24 26.0454C277.284 25.8962 278.043 25.6724 278.515 25.374C279 25.0632 279.242 24.5846 279.242 23.9381V23.8262C279.242 22.4213 278.826 21.3334 277.993 20.5626C277.16 19.7918 275.96 19.4064 274.394 19.4064C272.74 19.4064 271.428 19.7669 270.459 20.488C269.501 21.2091 268.855 22.0607 268.519 23.0429L262.216 22.1478C262.713 20.4072 263.534 18.9526 264.678 17.784C265.821 16.6029 267.22 15.7201 268.874 15.1358C270.527 14.5391 272.355 14.2407 274.356 14.2407C275.736 14.2407 277.11 14.4023 278.478 14.7255C279.845 15.0488 281.095 15.5834 282.226 16.3293C283.357 17.0629 284.265 18.0637 284.949 19.3318C285.645 20.5999 285.993 22.1851 285.993 24.0872V43.2582H279.503V39.3233H279.28C278.869 40.119 278.291 40.865 277.545 41.5612C276.812 42.245 275.885 42.7982 274.767 43.2209C273.66 43.6312 272.361 43.8363 270.869 43.8363ZM272.622 38.8758C273.977 38.8758 275.152 38.6085 276.147 38.0739C277.141 37.5268 277.906 36.8057 278.44 35.9106C278.987 35.0155 279.261 34.0395 279.261 32.9827V29.6073C279.05 29.7814 278.689 29.943 278.179 30.0922C277.682 30.2414 277.123 30.3719 276.501 30.4838C275.879 30.5957 275.264 30.6951 274.655 30.7822C274.045 30.8692 273.517 30.9438 273.069 31.006C272.062 31.1427 271.161 31.3665 270.365 31.6773C269.57 31.9881 268.942 32.4233 268.482 32.9827C268.022 33.5298 267.792 34.2384 267.792 35.1087C267.792 36.352 268.246 37.2906 269.153 37.9247C270.061 38.5587 271.217 38.8758 272.622 38.8758Z" fill="black"/>
<path d="M232.792 43.2581V5.06537H247.114C250.048 5.06537 252.51 5.6124 254.499 6.70646C256.501 7.80053 258.011 9.30487 259.031 11.2195C260.063 13.1217 260.579 15.2849 260.579 17.7093C260.579 20.1585 260.063 22.3342 259.031 24.2363C257.999 26.1385 256.476 27.6366 254.462 28.7307C252.448 29.8123 249.967 30.3532 247.021 30.3532H237.529V24.6653H246.089C247.804 24.6653 249.209 24.3669 250.303 23.7701C251.397 23.1734 252.205 22.3528 252.728 21.3085C253.262 20.2642 253.529 19.0644 253.529 17.7093C253.529 16.3541 253.262 15.1606 252.728 14.1287C252.205 13.0968 251.391 12.2949 250.285 11.723C249.19 11.1387 247.779 10.8465 246.051 10.8465H239.711V43.2581H232.792Z" fill="black"/>
<path d="M218.827 5.06537V43.2581H212.076V5.06537H218.827Z" fill="black"/>
<path d="M193.315 43.8363C191.5 43.8363 189.865 43.5131 188.41 42.8666C186.968 42.2077 185.824 41.2379 184.979 39.9574C184.146 38.6768 183.729 37.0979 183.729 35.2206C183.729 33.6044 184.028 32.2679 184.624 31.2111C185.221 30.1543 186.036 29.3089 187.067 28.6749C188.099 28.0408 189.262 27.5621 190.555 27.2389C191.86 26.9032 193.209 26.6608 194.602 26.5116C196.28 26.3375 197.641 26.1821 198.686 26.0454C199.73 25.8962 200.488 25.6724 200.961 25.374C201.446 25.0632 201.688 24.5846 201.688 23.9381V23.8262C201.688 22.4213 201.272 21.3334 200.439 20.5626C199.606 19.7918 198.406 19.4064 196.839 19.4064C195.186 19.4064 193.874 19.7669 192.905 20.488C191.947 21.2091 191.301 22.0607 190.965 23.0429L184.662 22.1478C185.159 20.4072 185.98 18.9526 187.123 17.784C188.267 16.6029 189.666 15.7201 191.319 15.1358C192.973 14.5391 194.8 14.2407 196.802 14.2407C198.182 14.2407 199.556 14.4023 200.924 14.7255C202.291 15.0488 203.541 15.5834 204.672 16.3293C205.803 17.0629 206.711 18.0637 207.395 19.3318C208.091 20.5999 208.439 22.1851 208.439 24.0872V43.2582H201.949V39.3233H201.725C201.315 40.119 200.737 40.865 199.991 41.5612C199.258 42.245 198.331 42.7982 197.212 43.2209C196.106 43.6312 194.807 43.8363 193.315 43.8363ZM195.068 38.8758C196.423 38.8758 197.598 38.6085 198.592 38.0739C199.587 37.5268 200.352 36.8057 200.886 35.9106C201.433 35.0155 201.707 34.0395 201.707 32.9827V29.6073C201.495 29.7814 201.135 29.943 200.625 30.0922C200.128 30.2414 199.568 30.3719 198.947 30.4838C198.325 30.5957 197.71 30.6951 197.101 30.7822C196.491 30.8692 195.963 30.9438 195.515 31.006C194.508 31.1427 193.607 31.3665 192.811 31.6773C192.016 31.9881 191.388 32.4233 190.928 32.9827C190.468 33.5298 190.238 34.2384 190.238 35.1087C190.238 36.352 190.692 37.2906 191.599 37.9247C192.507 38.5587 193.663 38.8758 195.068 38.8758Z" fill="black"/>
<path d="M182.577 14.6136V19.8353H166.11V14.6136H182.577ZM170.176 7.75087H176.926V34.6425C176.926 35.55 177.063 36.2463 177.337 36.7311C177.623 37.2036 177.996 37.5268 178.456 37.7009C178.916 37.8749 179.425 37.9619 179.985 37.9619C180.408 37.9619 180.793 37.9309 181.141 37.8687C181.502 37.8065 181.775 37.7506 181.962 37.7009L183.099 42.9785C182.739 43.1028 182.223 43.2396 181.551 43.3887C180.892 43.5379 180.084 43.625 179.127 43.6498C177.436 43.6996 175.913 43.4447 174.558 42.8852C173.203 42.3133 172.128 41.4306 171.332 40.2371C170.549 39.0436 170.163 37.5517 170.176 35.7614V7.75087Z" fill="black"/>
<path d="M152.976 43.8177C150.104 43.8177 147.624 43.2209 145.535 42.0274C143.459 40.8215 141.861 39.1182 140.742 36.9176C139.623 34.7046 139.064 32.1 139.064 29.1038C139.064 26.1573 139.623 23.5713 140.742 21.3459C141.874 19.108 143.453 17.3675 145.479 16.1242C147.506 14.8685 149.886 14.2407 152.622 14.2407C154.387 14.2407 156.053 14.5266 157.62 15.0985C159.198 15.658 160.591 16.5283 161.797 17.7094C163.015 18.8904 163.973 20.3948 164.669 22.2224C165.365 24.0375 165.713 26.2008 165.713 28.7122V30.7822H142.234V26.2319H159.242C159.23 24.9389 158.95 23.7889 158.403 22.7818C157.856 21.7624 157.091 20.9605 156.109 20.3761C155.139 19.7918 154.008 19.4996 152.715 19.4996C151.335 19.4996 150.123 19.8353 149.078 20.5067C148.034 21.1656 147.22 22.0359 146.635 23.1175C146.063 24.1867 145.771 25.3616 145.759 26.6421V30.6143C145.759 32.2803 146.063 33.71 146.673 34.9036C147.282 36.0847 148.134 36.9922 149.228 37.6263C150.322 38.2479 151.602 38.5587 153.069 38.5587C154.051 38.5587 154.94 38.422 155.736 38.1485C156.532 37.8625 157.222 37.446 157.806 36.899C158.39 36.352 158.832 35.6744 159.13 34.8663L165.433 35.5749C165.036 37.2409 164.277 38.6955 163.158 39.9387C162.052 41.1696 160.634 42.1269 158.906 42.8107C157.178 43.482 155.201 43.8177 152.976 43.8177Z" fill="black"/>
<path d="M96.1523 5.06543H104.619L115.957 32.7403H116.405L127.743 5.06543H136.21V43.2582H129.571V17.0193H129.217L118.661 43.1463H113.701L103.146 16.9634H102.791V43.2582H96.1523V5.06543Z" fill="black"/>
<defs>
<linearGradient id="paint0_linear_772_1045" x1="0.800659" y1="24.4067" x2="65.4346" y2="24.4067" gradientUnits="userSpaceOnUse">
<stop stop-color="#4400E2"/>
<stop offset="0.421875" stop-color="#F94E6C"/>
<stop offset="1" stop-color="#FFCB00"/>
</linearGradient>
</defs>
</svg>
