<svg width="64" height="48" viewBox="0 0 64 48" fill="none" xmlns="http://www.w3.org/2000/svg">
<path fill-rule="evenodd" clip-rule="evenodd" d="M55.7427 3.98693C55.7427 1.78692 57.5324 -6.10352e-05 59.7451 -6.10352e-05C61.9579 -6.10352e-05 63.7518 1.78271 63.7476 3.98693V44.0128C63.7476 46.2128 61.9579 47.9998 59.7451 47.9998C57.5366 47.9998 55.7427 46.2171 55.7427 44.0128V3.98693ZM0.190796 3.98705C0.190796 1.78282 1.9847 5.18201e-05 4.19323 5.18201e-05C6.40599 5.18201e-05 8.19989 1.78282 8.19566 3.98705V44.0129C8.19566 46.213 6.40599 47.9999 4.19323 47.9999C1.9847 47.9999 0.190796 46.2172 0.190796 44.0129V3.98705ZM22.7114 8.31963C20.4987 8.31963 18.709 10.1066 18.709 12.3066V35.6933C18.709 37.8976 20.5029 39.6803 22.7114 39.6803C24.9242 39.6803 26.7139 37.8934 26.7139 35.6933V12.3066C26.7139 10.1024 24.9242 8.31963 22.7114 8.31963ZM37.2279 19.0203C37.2279 16.8203 39.0175 15.0333 41.2303 15.0333C43.4388 15.0333 45.2327 16.8203 45.2327 19.0203V28.8867C45.2327 31.0867 43.4388 32.8737 41.2303 32.8737C39.0218 32.8737 37.2279 31.0909 37.2279 28.8867V19.0203Z" fill="url(#paint0_linear_772_648)"/>
<defs>
<linearGradient id="paint0_linear_772_648" x1="0.190796" y1="23.9999" x2="63.7476" y2="23.9999" gradientUnits="userSpaceOnUse">
<stop stop-color="#4400E2"/>
<stop offset="0.421875" stop-color="#F94E6C"/>
<stop offset="1" stop-color="#FFCB00"/>
</linearGradient>
</defs>
</svg>
