<svg width="209" height="48" viewBox="0 0 209 48" fill="none" xmlns="http://www.w3.org/2000/svg">
<path d="M73.9822 32.5007C73.8751 31.5504 73.4334 30.8142 72.6571 30.2922C71.8808 29.7635 70.9037 29.4991 69.7259 29.4991C68.8826 29.4991 68.1532 29.633 67.5375 29.9007C66.9218 30.1617 66.4433 30.5231 66.102 30.9848C65.7673 31.4399 65.6 31.9586 65.6 32.5408C65.6 33.0294 65.7138 33.451 65.9413 33.8057C66.1756 34.1604 66.4801 34.4582 66.8548 34.6991C67.2363 34.9333 67.6445 35.1307 68.0795 35.2914C68.5145 35.4453 68.9328 35.5724 69.3344 35.6728L71.3421 36.1948C71.9979 36.3554 72.6705 36.5729 73.3598 36.8473C74.0491 37.1217 74.6882 37.4831 75.2772 37.9315C75.8661 38.3799 76.3412 38.9353 76.7026 39.5979C77.0707 40.2604 77.2547 41.0535 77.2547 41.977C77.2547 43.1415 76.9536 44.1754 76.3513 45.0789C75.7557 45.9824 74.889 46.6951 73.7513 47.2171C72.6203 47.7391 71.2517 48.0001 69.6455 48.0001C68.1063 48.0001 66.7745 47.7558 65.6502 47.2673C64.5259 46.7788 63.6459 46.0861 63.0101 45.1893C62.3743 44.2859 62.023 43.2151 61.9561 41.977H65.068C65.1282 42.7199 65.3691 43.3389 65.7908 43.8341C66.2191 44.3227 66.7645 44.6874 67.427 44.9283C68.0963 45.1626 68.8291 45.2797 69.6255 45.2797C70.5022 45.2797 71.2818 45.1425 71.9644 44.8681C72.6538 44.587 73.1958 44.1989 73.5907 43.7036C73.9855 43.2017 74.183 42.6161 74.183 41.9469C74.183 41.3379 74.009 40.8393 73.661 40.4512C73.3196 40.063 72.8545 39.7418 72.2656 39.4875C71.6834 39.2332 71.0242 39.009 70.288 38.8149L67.8587 38.1523C66.2124 37.704 64.9074 37.0448 63.9437 36.1748C62.9867 35.3048 62.5082 34.1537 62.5082 32.7215C62.5082 31.537 62.8294 30.503 63.4719 29.6196C64.1143 28.7362 64.9843 28.0503 66.0819 27.5617C67.1794 27.0665 68.4175 26.8189 69.7961 26.8189C71.1881 26.8189 72.4162 27.0631 73.4803 27.5517C74.551 28.0402 75.3943 28.7128 76.01 29.5694C76.6257 30.4193 76.9469 31.3964 76.9737 32.5007H73.9822Z" fill="black"/>
<path d="M85.9526 47.97C84.4334 47.97 83.1251 47.6454 82.0275 46.9963C80.9367 46.3404 80.0935 45.4202 79.4978 44.2357C78.9089 43.0444 78.6145 41.6491 78.6145 40.0496C78.6145 38.4702 78.9089 37.0782 79.4978 35.8736C80.0935 34.669 80.9233 33.7287 81.9874 33.0528C83.0582 32.3769 84.3096 32.0389 85.7418 32.0389C86.6118 32.0389 87.455 32.1828 88.2715 32.4705C89.088 32.7583 89.8208 33.21 90.4699 33.8257C91.1191 34.4414 91.631 35.2412 92.0058 36.2249C92.3806 37.202 92.568 38.3899 92.568 39.7886V40.8527H80.311V38.6041H89.6267C89.6267 37.8144 89.4661 37.115 89.1448 36.506C88.8236 35.8903 88.3719 35.4051 87.7896 35.0504C87.2141 34.6958 86.5382 34.5184 85.7619 34.5184C84.9186 34.5184 84.1825 34.7259 83.5534 35.1408C82.931 35.549 82.4492 36.0844 82.1078 36.7469C81.7732 37.4028 81.6059 38.1155 81.6059 38.8852V40.6419C81.6059 41.6725 81.7866 42.5492 82.148 43.272C82.5161 43.9948 83.028 44.5469 83.6839 44.9283C84.3397 45.3031 85.106 45.4905 85.9827 45.4905C86.5516 45.4905 87.0702 45.4102 87.5387 45.2496C88.0071 45.0823 88.412 44.8346 88.7533 44.5067C89.0946 44.1788 89.3556 43.7739 89.5363 43.2921L92.3772 43.804C92.1497 44.6406 91.7415 45.3734 91.1525 46.0025C90.5703 46.6248 89.8375 47.11 88.9541 47.458C88.0774 47.7993 87.0769 47.97 85.9526 47.97Z" fill="black"/>
<path d="M94.4848 47.6588V32.2397H97.3859V34.6891H97.5466C97.8276 33.8592 98.3229 33.2067 99.0323 32.7315C99.7483 32.2497 100.558 32.0088 101.462 32.0088C101.649 32.0088 101.87 32.0155 102.124 32.0289C102.385 32.0422 102.589 32.059 102.736 32.079V34.9501C102.616 34.9166 102.402 34.8798 102.094 34.8396C101.786 34.7928 101.478 34.7694 101.17 34.7694C100.461 34.7694 99.8287 34.9199 99.2732 35.2211C98.7244 35.5156 98.2894 35.9271 97.9682 36.4558C97.647 36.9778 97.4863 37.5735 97.4863 38.2427V47.6588H94.4848Z" fill="black"/>
<path d="M117.58 32.2397L111.989 47.6588H108.777L103.175 32.2397H106.398L110.302 44.1052H110.463L114.358 32.2397H117.58Z" fill="black"/>
<path d="M118.988 47.6588V32.2397H121.989V47.6588H118.988ZM120.504 29.8605C119.982 29.8605 119.533 29.6865 119.158 29.3385C118.79 28.9838 118.606 28.5622 118.606 28.0737C118.606 27.5784 118.79 27.1568 119.158 26.8088C119.533 26.4541 119.982 26.2768 120.504 26.2768C121.026 26.2768 121.471 26.4541 121.839 26.8088C122.214 27.1568 122.401 27.5784 122.401 28.0737C122.401 28.5622 122.214 28.9838 121.839 29.3385C121.471 29.6865 121.026 29.8605 120.504 29.8605Z" fill="black"/>
<path d="M131.109 47.97C129.616 47.97 128.331 47.632 127.254 46.9561C126.183 46.2735 125.36 45.3332 124.785 44.1353C124.209 42.9374 123.921 41.5654 123.921 40.0195C123.921 38.4535 124.216 37.0715 124.805 35.8736C125.394 34.669 126.223 33.7287 127.294 33.0528C128.365 32.3769 129.626 32.0389 131.079 32.0389C132.25 32.0389 133.294 32.2564 134.211 32.6914C135.128 33.1197 135.867 33.722 136.429 34.4983C136.998 35.2746 137.336 36.1814 137.443 37.2188H134.522C134.361 36.496 133.993 35.8736 133.418 35.3516C132.849 34.8296 132.086 34.5686 131.129 34.5686C130.292 34.5686 129.56 34.7894 128.93 35.2311C128.308 35.6661 127.823 36.2885 127.475 37.0983C127.127 37.9014 126.953 38.8517 126.953 39.9492C126.953 41.0735 127.124 42.0439 127.465 42.8604C127.806 43.6769 128.288 44.3093 128.91 44.7577C129.539 45.2061 130.279 45.4303 131.129 45.4303C131.698 45.4303 132.213 45.3265 132.675 45.1191C133.143 44.9049 133.535 44.6004 133.849 44.2056C134.171 43.8107 134.395 43.3356 134.522 42.7801H137.443C137.336 43.7772 137.011 44.6673 136.469 45.4503C135.927 46.2333 135.201 46.849 134.291 47.2974C133.388 47.7458 132.327 47.97 131.109 47.97Z" fill="black"/>
<path d="M145.885 47.97C144.366 47.97 143.057 47.6454 141.96 46.9963C140.869 46.3404 140.026 45.4202 139.43 44.2357C138.841 43.0444 138.547 41.6491 138.547 40.0496C138.547 38.4702 138.841 37.0782 139.43 35.8736C140.026 34.669 140.856 33.7287 141.92 33.0528C142.991 32.3769 144.242 32.0389 145.674 32.0389C146.544 32.0389 147.387 32.1828 148.204 32.4705C149.02 32.7583 149.753 33.21 150.402 33.8257C151.051 34.4414 151.563 35.2412 151.938 36.2249C152.313 37.202 152.5 38.3899 152.5 39.7886V40.8527H140.243V38.6041H149.559C149.559 37.8144 149.398 37.115 149.077 36.506C148.756 35.8903 148.304 35.4051 147.722 35.0504C147.146 34.6958 146.471 34.5184 145.694 34.5184C144.851 34.5184 144.115 34.7259 143.486 35.1408C142.863 35.549 142.382 36.0844 142.04 36.7469C141.706 37.4028 141.538 38.1155 141.538 38.8852V40.6419C141.538 41.6725 141.719 42.5492 142.08 43.272C142.448 43.9948 142.96 44.5469 143.616 44.9283C144.272 45.3031 145.038 45.4905 145.915 45.4905C146.484 45.4905 147.003 45.4102 147.471 45.2496C147.94 45.0823 148.344 44.8346 148.686 44.5067C149.027 44.1788 149.288 43.7739 149.469 43.2921L152.31 43.804C152.082 44.6406 151.674 45.3734 151.085 46.0025C150.503 46.6248 149.77 47.11 148.886 47.458C148.01 47.7993 147.009 47.97 145.885 47.97Z" fill="black"/>
<path d="M165.972 36.0041L163.251 36.486C163.137 36.1379 162.957 35.8067 162.709 35.4921C162.468 35.1776 162.14 34.9199 161.725 34.7192C161.31 34.5184 160.792 34.418 160.169 34.418C159.319 34.418 158.61 34.6087 158.041 34.9902C157.472 35.365 157.188 35.8502 157.188 36.4458C157.188 36.9611 157.379 37.376 157.76 37.6906C158.141 38.0051 158.757 38.2628 159.607 38.4635L162.056 39.0257C163.475 39.3536 164.533 39.8589 165.229 40.5415C165.925 41.2241 166.273 42.1109 166.273 43.2017C166.273 44.1253 166.005 44.9484 165.47 45.6712C164.941 46.3873 164.201 46.9494 163.251 47.3577C162.307 47.7659 161.213 47.97 159.968 47.97C158.242 47.97 156.833 47.6019 155.742 46.8658C154.651 46.1229 153.982 45.0689 153.735 43.7036L156.636 43.2619C156.816 44.0182 157.188 44.5904 157.75 44.9785C158.312 45.36 159.045 45.5507 159.948 45.5507C160.932 45.5507 161.719 45.3466 162.307 44.9384C162.896 44.5234 163.191 44.0182 163.191 43.4226C163.191 42.9407 163.01 42.5358 162.649 42.2079C162.294 41.88 161.749 41.6324 161.012 41.465L158.402 40.8929C156.964 40.5649 155.9 40.0429 155.21 39.3268C154.528 38.6108 154.186 37.704 154.186 36.6064C154.186 35.6963 154.441 34.8999 154.949 34.2172C155.458 33.5346 156.161 33.0026 157.057 32.6211C157.954 32.233 158.981 32.0389 160.139 32.0389C161.806 32.0389 163.117 32.4003 164.074 33.1231C165.031 33.8391 165.664 34.7995 165.972 36.0041Z" fill="black"/>
<path d="M62.5383 0.994037H67.0958L73.1992 15.8912H73.4401L79.5435 0.994037H84.101V21.5529H80.5273V7.42872H80.3366L74.6548 21.4927H71.9845L66.3027 7.3986H66.112V21.5529H62.5383V0.994037Z" fill="black"/>
<path d="M93.4087 21.8541C91.8628 21.8541 90.5276 21.5328 89.4033 20.8904C88.2857 20.2412 87.4257 19.3243 86.8234 18.1398C86.2211 16.9486 85.92 15.5465 85.92 13.9337C85.92 12.3476 86.2211 10.9556 86.8234 9.75765C87.4324 8.55303 88.2824 7.6161 89.3732 6.94687C90.4641 6.27094 91.7457 5.93298 93.218 5.93298C94.1683 5.93298 95.0651 6.08691 95.9083 6.39475C96.7582 6.69591 97.5078 7.16437 98.1569 7.80014C98.8128 8.43592 99.3281 9.24569 99.7028 10.2295C100.078 11.2065 100.265 12.371 100.265 13.7229V14.8371H87.6265V12.3877H96.7816C96.7749 11.6917 96.6244 11.0727 96.3299 10.5306C96.0354 9.98185 95.6239 9.55019 95.0952 9.23565C94.5732 8.92111 93.9642 8.76384 93.2682 8.76384C92.5253 8.76384 91.8728 8.94453 91.3106 9.30592C90.7485 9.66061 90.3101 10.1291 89.9956 10.7113C89.6878 11.2869 89.5305 11.9193 89.5238 12.6086V14.7468C89.5238 15.6436 89.6878 16.4132 90.0157 17.0556C90.3436 17.6914 90.802 18.18 91.391 18.5213C91.9799 18.8559 92.6692 19.0232 93.4589 19.0232C93.9876 19.0232 94.4661 18.9496 94.8944 18.8023C95.3227 18.6484 95.6941 18.4242 96.0087 18.1298C96.3232 17.8353 96.5608 17.4706 96.7214 17.0356L100.114 17.417C99.9003 18.3138 99.492 19.0968 98.8897 19.766C98.2941 20.4286 97.5312 20.9439 96.6009 21.312C95.6707 21.6734 94.6066 21.8541 93.4087 21.8541Z" fill="black"/>
<path d="M109.625 6.13375V8.94453H100.761V6.13375H109.625ZM102.95 2.43958H106.584V16.9151C106.584 17.4036 106.657 17.7784 106.805 18.0394C106.958 18.2937 107.159 18.4677 107.407 18.5614C107.655 18.6551 107.929 18.702 108.23 18.702C108.458 18.702 108.665 18.6852 108.852 18.6518C109.047 18.6183 109.194 18.5882 109.294 18.5614L109.906 21.4023C109.712 21.4692 109.435 21.5429 109.073 21.6232C108.719 21.7035 108.284 21.7503 107.768 21.7637C106.858 21.7905 106.038 21.6533 105.309 21.3521C104.579 21.0443 104 20.5691 103.572 19.9267C103.151 19.2842 102.943 18.4811 102.95 17.5174V2.43958Z" fill="black"/>
<path d="M115.688 21.8641C114.711 21.8641 113.831 21.6901 113.048 21.3421C112.272 20.9874 111.656 20.4654 111.201 19.7761C110.753 19.0868 110.528 18.2368 110.528 17.2263C110.528 16.3563 110.689 15.6369 111.01 15.068C111.331 14.4992 111.77 14.0441 112.325 13.7028C112.881 13.3615 113.506 13.1038 114.202 12.9298C114.905 12.7491 115.631 12.6186 116.381 12.5383C117.284 12.4446 118.017 12.361 118.579 12.2874C119.141 12.207 119.55 12.0866 119.804 11.926C120.065 11.7587 120.195 11.501 120.195 11.153V11.0928C120.195 10.3365 119.971 9.75096 119.523 9.33603C119.074 8.92111 118.429 8.71365 117.585 8.71365C116.695 8.71365 115.989 8.90773 115.467 9.29588C114.952 9.68404 114.604 10.1425 114.423 10.6712L111.03 10.1893C111.298 9.25238 111.74 8.46938 112.355 7.8403C112.971 7.20452 113.724 6.72937 114.614 6.41483C115.504 6.0936 116.488 5.93298 117.565 5.93298C118.308 5.93298 119.048 6.01998 119.784 6.19398C120.52 6.36798 121.193 6.65575 121.802 7.05729C122.411 7.45214 122.899 7.99087 123.267 8.67349C123.642 9.35611 123.829 10.2094 123.829 11.2333V21.5529H120.336V19.4348H120.216C119.995 19.8631 119.683 20.2646 119.282 20.6394C118.887 21.0075 118.389 21.3053 117.786 21.5328C117.191 21.7537 116.491 21.8641 115.688 21.8641ZM116.632 19.1938C117.361 19.1938 117.994 19.05 118.529 18.7622C119.064 18.4677 119.476 18.0796 119.764 17.5977C120.058 17.1159 120.205 16.5905 120.205 16.0217V14.2047C120.092 14.2984 119.898 14.3854 119.623 14.4657C119.356 14.546 119.054 14.6163 118.72 14.6765C118.385 14.7367 118.054 14.7903 117.726 14.8371C117.398 14.884 117.114 14.9241 116.873 14.9576C116.331 15.0312 115.845 15.1517 115.417 15.319C114.989 15.4863 114.651 15.7205 114.403 16.0217C114.156 16.3161 114.032 16.6976 114.032 17.1661C114.032 17.8353 114.276 18.3406 114.765 18.6819C115.253 19.0232 115.876 19.1938 116.632 19.1938Z" fill="black"/>
<path d="M129.704 0.994037V21.5529H126.07V0.994037H129.704Z" fill="black"/>
<path d="M155.384 7.93064H151.63C151.522 7.31495 151.325 6.76952 151.037 6.29437C150.749 5.81252 150.391 5.40429 149.963 5.06967C149.535 4.73505 149.046 4.48409 148.497 4.31678C147.955 4.14278 147.37 4.05578 146.741 4.05578C145.623 4.05578 144.633 4.33686 143.769 4.89901C142.906 5.45448 142.23 6.27094 141.742 7.34841C141.253 8.41918 141.009 9.72754 141.009 11.2735C141.009 12.8462 141.253 14.1712 141.742 15.2487C142.237 16.3195 142.913 17.1293 143.769 17.678C144.633 18.2201 145.62 18.4912 146.731 18.4912C147.346 18.4912 147.922 18.4108 148.457 18.2502C148.999 18.0829 149.485 17.8386 149.913 17.5174C150.348 17.1962 150.713 16.8013 151.007 16.3329C151.308 15.8644 151.516 15.329 151.63 14.7267L155.384 14.7468C155.243 15.7239 154.939 16.6407 154.47 17.4973C154.009 18.354 153.403 19.1102 152.653 19.766C151.904 20.4152 151.027 20.9238 150.023 21.2919C149.02 21.6533 147.905 21.834 146.681 21.834C144.874 21.834 143.261 21.4157 141.842 20.5792C140.423 19.7426 139.306 18.5347 138.489 16.9553C137.673 15.3759 137.264 13.4819 137.264 11.2735C137.264 9.0583 137.676 7.16437 138.499 5.59167C139.322 4.01228 140.443 2.80431 141.862 1.96777C143.281 1.13123 144.887 0.712959 146.681 0.712959C147.825 0.712959 148.889 0.873575 149.873 1.19481C150.857 1.51604 151.733 1.98785 152.503 2.61024C153.272 3.22593 153.905 3.98217 154.4 4.87894C154.902 5.76902 155.23 6.78626 155.384 7.93064Z" fill="black"/>
<path d="M160.854 0.994037V21.5529H157.22V0.994037H160.854Z" fill="black"/>
<path d="M163.178 21.5529V6.13375H166.812V21.5529H163.178ZM165.005 3.94536C164.429 3.94536 163.934 3.75463 163.519 3.37316C163.104 2.98501 162.897 2.51989 162.897 1.97781C162.897 1.42904 163.104 0.963921 163.519 0.582458C163.934 0.194303 164.429 0.000225067 165.005 0.000225067C165.587 0.000225067 166.082 0.194303 166.491 0.582458C166.905 0.963921 167.113 1.42904 167.113 1.97781C167.113 2.51989 166.905 2.98501 166.491 3.37316C166.082 3.75463 165.587 3.94536 165.005 3.94536Z" fill="black"/>
<path d="M175.961 21.8541C174.415 21.8541 173.08 21.5328 171.956 20.8904C170.838 20.2412 169.978 19.3243 169.376 18.1398C168.774 16.9486 168.473 15.5465 168.473 13.9337C168.473 12.3476 168.774 10.9556 169.376 9.75765C169.985 8.55303 170.835 7.6161 171.926 6.94687C173.017 6.27094 174.298 5.93298 175.771 5.93298C176.721 5.93298 177.618 6.08691 178.461 6.39475C179.311 6.69591 180.06 7.16437 180.71 7.80014C181.365 8.43592 181.881 9.24569 182.255 10.2295C182.63 11.2065 182.818 12.371 182.818 13.7229V14.8371H170.179V12.3877H179.334C179.328 11.6917 179.177 11.0727 178.883 10.5306C178.588 9.98185 178.177 9.55019 177.648 9.23565C177.126 8.92111 176.517 8.76384 175.821 8.76384C175.078 8.76384 174.425 8.94453 173.863 9.30592C173.301 9.66061 172.863 10.1291 172.548 10.7113C172.24 11.2869 172.083 11.9193 172.076 12.6086V14.7468C172.076 15.6436 172.24 16.4132 172.568 17.0556C172.896 17.6914 173.355 18.18 173.944 18.5213C174.533 18.8559 175.222 19.0232 176.012 19.0232C176.54 19.0232 177.019 18.9496 177.447 18.8023C177.875 18.6484 178.247 18.4242 178.561 18.1298C178.876 17.8353 179.113 17.4706 179.274 17.0356L182.667 17.417C182.453 18.3138 182.045 19.0968 181.442 19.766C180.847 20.4286 180.084 20.9439 179.154 21.312C178.223 21.6734 177.159 21.8541 175.961 21.8541Z" fill="black"/>
<path d="M188.112 12.5182V21.5529H184.479V6.13375H187.952V8.7538H188.133C188.487 7.89049 189.053 7.20453 189.829 6.69591C190.612 6.18729 191.579 5.93298 192.73 5.93298C193.794 5.93298 194.721 6.16052 195.511 6.6156C196.307 7.07068 196.923 7.72987 197.358 8.59319C197.8 9.4565 198.017 10.5038 198.01 11.7352V21.5529H194.376V12.2974C194.376 11.2668 194.109 10.4603 193.573 9.87811C193.045 9.29588 192.312 9.00476 191.375 9.00476C190.739 9.00476 190.174 9.1453 189.678 9.42638C189.19 9.70077 188.805 10.099 188.524 10.621C188.25 11.143 188.112 11.7754 188.112 12.5182Z" fill="black"/>
<path d="M207.991 6.13375V8.94453H199.127V6.13375H207.991ZM201.315 2.43958H204.949V16.9151C204.949 17.4036 205.023 17.7784 205.17 18.0394C205.324 18.2937 205.525 18.4677 205.772 18.5614C206.02 18.6551 206.294 18.702 206.595 18.702C206.823 18.702 207.03 18.6852 207.218 18.6518C207.412 18.6183 207.559 18.5882 207.659 18.5614L208.272 21.4023C208.078 21.4692 207.8 21.5429 207.439 21.6232C207.084 21.7035 206.649 21.7503 206.134 21.7637C205.223 21.7905 204.404 21.6533 203.674 21.3521C202.945 21.0443 202.366 20.5691 201.937 19.9267C201.516 19.2842 201.308 18.4811 201.315 17.5174V2.43958Z" fill="black"/>
<path fill-rule="evenodd" clip-rule="evenodd" d="M10.1486 3.97832C10.1486 6.17773 11.9248 7.9566 14.1116 7.9566L32.5861 7.9566C34.7771 7.9566 36.5491 6.17352 36.5491 3.97832C36.5491 1.7789 34.7729 3.05176e-05 32.5861 3.05176e-05L14.1115 3.26744e-05C11.9206 3.27702e-05 10.1486 1.77891 10.1486 3.97832ZM0.807617 14.2162C0.807617 12.0295 2.58649 10.2533 4.7859 10.2533C6.98531 10.2533 8.76419 12.0253 8.76419 14.2162V32.6908C8.76419 34.8775 6.98531 36.6537 4.7859 36.6537C2.5907 36.6537 0.807617 34.8817 0.807617 32.6908V14.2162ZM37.9337 14.2162C37.9337 12.0295 39.7126 10.2533 41.912 10.2533C44.1114 10.2533 45.8902 12.0253 45.8902 14.2162V32.6908C45.8902 34.8775 44.1114 36.6537 41.912 36.6537C39.7168 36.6537 37.9337 34.8817 37.9337 32.6908V14.2162ZM27.3119 48C25.1251 48 23.3489 46.2212 23.3489 44.0218C23.3489 41.8265 25.1251 40.0435 27.3119 40.0435H37.1187C39.3054 40.0435 41.0816 41.8265 41.0816 44.0218C41.0816 46.217 39.3096 48 37.1187 48H27.3119Z" fill="black"/>
<path fill-rule="evenodd" clip-rule="evenodd" d="M10.1486 3.97832C10.1486 6.17773 11.9248 7.9566 14.1116 7.9566L32.5861 7.9566C34.7771 7.9566 36.5491 6.17352 36.5491 3.97832C36.5491 1.7789 34.7729 3.05176e-05 32.5861 3.05176e-05L14.1115 3.26744e-05C11.9206 3.27702e-05 10.1486 1.77891 10.1486 3.97832ZM0.807617 14.2162C0.807617 12.0295 2.58649 10.2533 4.7859 10.2533C6.98531 10.2533 8.76419 12.0253 8.76419 14.2162V32.6908C8.76419 34.8775 6.98531 36.6537 4.7859 36.6537C2.5907 36.6537 0.807617 34.8817 0.807617 32.6908V14.2162ZM37.9337 14.2162C37.9337 12.0295 39.7126 10.2533 41.912 10.2533C44.1114 10.2533 45.8902 12.0253 45.8902 14.2162V32.6908C45.8902 34.8775 44.1114 36.6537 41.912 36.6537C39.7168 36.6537 37.9337 34.8817 37.9337 32.6908V14.2162ZM27.3119 48C25.1251 48 23.3489 46.2212 23.3489 44.0218C23.3489 41.8265 25.1251 40.0435 27.3119 40.0435H37.1187C39.3054 40.0435 41.0816 41.8265 41.0816 44.0218C41.0816 46.217 39.3096 48 37.1187 48H27.3119Z" fill="black"/>
</svg>
