<svg width="65" height="65" viewBox="0 0 65 65" fill="none" xmlns="http://www.w3.org/2000/svg">
<path fill-rule="evenodd" clip-rule="evenodd" d="M32.3311 56.8699C45.8804 56.8699 56.8644 45.8859 56.8644 32.3365C56.8644 18.7872 45.8804 7.80322 32.3311 7.80322C18.7817 7.80322 7.79772 18.7872 7.79772 32.3365C7.79772 45.8859 18.7817 56.8699 32.3311 56.8699ZM32.3311 64.3365C50.0042 64.3365 64.3311 50.0097 64.3311 32.3365C64.3311 14.6634 50.0042 0.336548 32.3311 0.336548C14.6579 0.336548 0.331055 14.6634 0.331055 32.3365C0.331055 50.0097 14.6579 64.3365 32.3311 64.3365Z" fill="url(#paint0_linear_772_745)"/>
<path d="M32.1058 50.9865C24.6558 50.9865 19.8808 48.0115 18.4308 44.0615C18.1808 43.4115 18.0308 42.7115 18.0308 42.0365C18.0308 40.0365 19.4058 38.7115 21.3558 38.7115C22.9058 38.7115 23.9308 39.3115 24.8308 40.9115C26.0058 43.6615 28.8308 44.9115 32.2808 44.9115C36.3308 44.9115 39.0808 42.9615 39.0808 40.3115C39.0808 37.9365 37.3808 36.5865 32.8558 35.6615L29.0308 34.9115C21.8308 33.4865 18.3058 30.0365 18.3058 24.6615C18.3058 18.0615 24.0558 13.6865 32.0808 13.6865C38.6808 13.6865 43.6558 16.4615 45.2558 21.1615C45.4308 21.6615 45.5308 22.1865 45.5308 22.8365C45.5308 24.6365 44.2308 25.8615 42.3058 25.8615C40.6058 25.8615 39.5558 25.1865 38.7058 23.6365C37.5058 20.9115 35.1808 19.7865 32.0808 19.7865C28.3558 19.7865 25.8808 21.5365 25.8808 24.1865C25.8808 26.4115 27.6058 27.7865 31.8808 28.6365L35.6808 29.4115C43.3308 30.9365 46.6308 34.0115 46.6308 39.4865C46.6308 46.5365 41.1058 50.9865 32.1058 50.9865Z" fill="black"/>
<path d="M28.6308 11.3698C28.6308 10.6887 29.183 10.1365 29.8642 10.1365C30.5453 10.1365 31.0975 10.6887 31.0975 11.3698V53.3032C31.0975 53.9843 30.5453 54.5365 29.8642 54.5365C29.183 54.5365 28.6308 53.9843 28.6308 53.3032V11.3698Z" fill="black"/>
<path d="M33.5642 11.3698C33.5642 10.6887 34.1163 10.1365 34.7975 10.1365C35.4786 10.1365 36.0308 10.6887 36.0308 11.3698V53.3032C36.0308 53.9843 35.4786 54.5365 34.7975 54.5365C34.1163 54.5365 33.5642 53.9843 33.5642 53.3032V11.3698Z" fill="black"/>
<defs>
<linearGradient id="paint0_linear_772_745" x1="0.331055" y1="32.3379" x2="64.3311" y2="32.3379" gradientUnits="userSpaceOnUse">
<stop stop-color="#7013C5"/>
<stop offset="0.35" stop-color="#7330D7"/>
<stop offset="0.5" stop-color="#7543E3"/>
<stop offset="0.65" stop-color="#F94E6C"/>
<stop offset="0.75" stop-color="#FC9237"/>
<stop offset="0.85" stop-color="#FFD305"/>
<stop offset="1" stop-color="#20BF55"/>
</linearGradient>
</defs>
</svg>
