<svg width="64" height="64" viewBox="0 0 64 64" fill="none" xmlns="http://www.w3.org/2000/svg">
<rect width="64" height="64" rx="32" fill="url(#paint0_linear_844_115)"/>
<path fill-rule="evenodd" clip-rule="evenodd" d="M18.7812 18.2088C20.4099 18.2088 21.7303 19.5291 21.7303 21.1579V42.8422C21.7303 44.4709 20.4099 45.7912 18.7812 45.7912C17.1525 45.7912 15.8321 44.4709 15.8321 42.8422V21.1579C15.8321 19.5291 17.1525 18.2088 18.7812 18.2088Z" fill="white"/>
<path fill-rule="evenodd" clip-rule="evenodd" d="M45.2188 18.2088C46.8475 18.2088 48.1678 19.5291 48.1678 21.1579V42.8422C48.1678 44.4709 46.8475 45.7912 45.2188 45.7912C43.59 45.7912 42.2697 44.4709 42.2697 42.8422V21.1579C42.2697 19.5291 43.59 18.2088 45.2188 18.2088Z" fill="white"/>
<path fill-rule="evenodd" clip-rule="evenodd" d="M16.9223 18.8685C18.1868 17.8418 20.044 18.0346 21.0707 19.299L34.2894 35.5796C35.3161 36.844 35.1233 38.7013 33.8589 39.7279C32.5944 40.7546 30.7372 40.5618 29.7105 39.2974L16.4918 23.0168C15.4651 21.7524 15.6579 19.8951 16.9223 18.8685Z" fill="white"/>
<path fill-rule="evenodd" clip-rule="evenodd" d="M47.0776 18.8685C48.3421 19.8951 48.5348 21.7524 47.5082 23.0168L34.2894 39.2974C33.2628 40.5618 31.4055 40.7546 30.1411 39.7279C28.8767 38.7013 28.6839 36.844 29.7106 35.5796L42.9293 19.299C43.9559 18.0346 45.8132 17.8418 47.0776 18.8685Z" fill="white"/>
<defs>
<linearGradient id="paint0_linear_844_115" x1="-0.595861" y1="2.12965" x2="62.2897" y2="59.7517" gradientUnits="userSpaceOnUse">
<stop stop-color="#FC9237"/>
<stop offset="0.48" stop-color="#7013C5"/>
<stop offset="1" stop-color="#20BF55"/>
</linearGradient>
</defs>
</svg>
