<svg width="67" height="40" viewBox="0 0 67 40" fill="none" xmlns="http://www.w3.org/2000/svg">
<path fill-rule="evenodd" clip-rule="evenodd" d="M21.8992 3.68656C22.5037 1.87291 21.1538 -3.05176e-05 19.242 -3.05176e-05H7.27617C5.76705 -3.05176e-05 4.42775 0.96697 3.9529 2.39943L0.451194 12.9629C-0.161231 14.8104 -0.0342384 16.8233 0.805523 18.5791L10.2887 38.4076C10.7541 39.3806 11.7368 40 12.8155 40H22.5973C23.8028 40 24.8732 39.2285 25.2544 38.0848L30.8766 18.0671C30.8854 18.0403 30.8945 18.0137 30.9041 17.9872C31.0492 17.5834 31.2809 17.2345 31.5712 16.9544C32.0731 16.4701 32.7502 16.1917 33.4572 16.1918C33.8096 16.1918 34.1545 16.2609 34.474 16.3902C34.8062 16.5241 35.0988 16.7177 35.3433 16.9544C35.6336 17.2345 35.8653 17.5834 36.0104 17.9872C36.0128 17.9938 36.0152 18.0005 36.0175 18.0072C36.02 18.0144 36.0225 18.0215 36.025 18.0287L36.0327 18.0517L36.0378 18.0671L41.6601 38.0848C42.0413 39.2285 43.1116 40 44.3172 40H54.0991C55.1778 40 56.1605 39.3806 56.6259 38.4076L66.1091 18.5791C66.9488 16.8233 67.0758 14.8104 66.4634 12.9629L62.9617 2.39943C62.4868 0.96697 61.1475 -3.05176e-05 59.6384 -3.05176e-05H49.0728C47.1611 -3.05176e-05 45.8112 1.87291 46.4157 3.68656L52.1364 20.8487C52.6103 22.2704 51.842 23.807 50.4204 24.2809C48.9987 24.7548 47.4621 23.9865 46.9882 22.5648L40.105 1.91513C39.7238 0.771416 38.6534 -3.05176e-05 37.4478 -3.05176e-05H30.8671C29.6615 -3.05176e-05 28.5911 0.771417 28.2099 1.91513L21.3267 22.5648C20.8528 23.9865 19.3162 24.7548 17.8945 24.2809C16.4729 23.807 15.7046 22.2704 16.1785 20.8487L21.8992 3.68656ZM33.4622 26.433C32.6965 26.433 32.0197 26.9306 31.7913 27.6614L31.1349 29.7621C30.7826 30.8893 31.6247 32.0347 32.8057 32.0347H34.3456C35.5265 32.0347 36.3687 30.8893 36.0164 29.7621L35.36 27.6614C35.1316 26.9306 34.4548 26.433 33.6891 26.433H33.4622Z" fill="white"/>
</svg>
