<svg width="315" height="40" viewBox="0 0 315 40" fill="none" xmlns="http://www.w3.org/2000/svg">
<path fill-rule="evenodd" clip-rule="evenodd" d="M21.8532 3.68154C22.4569 1.87036 21.1088 -3.05176e-05 19.1997 -3.05176e-05H7.25011C5.74305 -3.05176e-05 4.40558 0.965653 3.93138 2.39616L0.434438 12.9453C-0.177153 14.7902 -0.0503333 16.8004 0.788284 18.5538L10.2585 38.3553C10.7233 39.327 11.7047 39.9455 12.7819 39.9455H22.5503C23.7543 39.9455 24.8231 39.1751 25.2039 38.033L30.8184 18.0425C30.8272 18.0157 30.8363 17.9891 30.8459 17.9627C30.9907 17.5595 31.2221 17.211 31.512 16.9313C32.0133 16.4477 32.6895 16.1696 33.3955 16.1698C33.7474 16.1697 34.0918 16.2387 34.4109 16.3678C34.7426 16.5016 35.0348 16.695 35.279 16.9313C35.5689 17.211 35.8003 17.5595 35.9452 17.9627C35.9502 17.9765 35.955 17.9903 35.9598 18.0042L35.9675 18.0271L35.9726 18.0425L41.5872 38.033C41.9679 39.1751 43.0368 39.9455 44.2407 39.9455H54.0093C55.0865 39.9455 56.0679 39.327 56.5326 38.3553L66.0029 18.5538C66.8415 16.8004 66.9683 14.7902 66.3567 12.9453L62.8598 2.39616C62.3856 0.965653 61.0481 -3.05176e-05 59.5411 -3.05176e-05H48.9899C47.0807 -3.05176e-05 45.7326 1.87036 46.3363 3.68154L52.0493 20.8203C52.5225 22.24 51.7553 23.7746 50.3355 24.2478C48.9158 24.721 47.3813 23.9538 46.9081 22.5341L40.0342 1.91252C39.6535 0.770365 38.5846 -3.05176e-05 37.3807 -3.05176e-05H30.8089C29.6049 -3.05176e-05 28.5361 0.770366 28.1553 1.91252L21.2815 22.5341C20.8083 23.9538 19.2737 24.721 17.854 24.2478C16.4343 23.7746 15.667 22.24 16.1403 20.8203L21.8532 3.68154ZM33.4005 26.397C32.6359 26.397 31.96 26.8939 31.7319 27.6237L31.0763 29.7215C30.7245 30.8472 31.5655 31.9911 32.7449 31.9911H34.2826C35.462 31.9911 36.303 30.8472 35.9512 29.7215L35.2957 27.6237C35.0676 26.8939 34.3917 26.397 33.6271 26.397H33.4005Z" fill="white"/>
<path d="M294.905 22.1061V39.4229H287.939V0.0175323H294.751V14.8907H295.097C295.79 13.2232 296.861 11.9084 298.31 10.9464C299.773 9.97148 301.633 9.48405 303.89 9.48405C305.943 9.48405 307.732 9.91376 309.258 10.7732C310.785 11.6326 311.965 12.8897 312.799 14.5444C313.645 16.1991 314.069 18.2194 314.069 20.6053V39.4229H307.103V21.6828C307.103 19.6945 306.59 18.1489 305.564 17.0457C304.551 15.9297 303.127 15.3718 301.293 15.3718C300.061 15.3718 298.958 15.6411 297.983 16.1799C297.021 16.7058 296.264 17.469 295.713 18.4695C295.174 19.4701 294.905 20.6822 294.905 22.1061Z" fill="white"/>
<path d="M284.73 9.86881V15.2563H267.741V9.86881H284.73ZM271.935 2.78817H278.9V30.5335C278.9 31.4699 279.042 32.1882 279.324 32.6885C279.619 33.1759 280.004 33.5094 280.478 33.689C280.953 33.8686 281.479 33.9584 282.056 33.9584C282.492 33.9584 282.89 33.9263 283.249 33.8622C283.621 33.7981 283.903 33.7403 284.095 33.689L285.269 39.1342C284.897 39.2625 284.365 39.4036 283.672 39.5575C282.992 39.7114 282.159 39.8012 281.171 39.8269C279.426 39.8782 277.855 39.6152 276.457 39.038C275.059 38.4479 273.949 37.5372 273.128 36.3058C272.32 35.0744 271.922 33.5351 271.935 31.688V2.78817Z" fill="white"/>
<path d="M259.096 26.9932V9.86882H266.061V39.4228H259.308V34.1701H259C258.333 35.8248 257.236 37.178 255.709 38.2299C254.196 39.2817 252.329 39.8076 250.11 39.8076C248.173 39.8076 246.461 39.3779 244.973 38.5185C243.498 37.6462 242.343 36.3828 241.51 34.728C240.676 33.0605 240.259 31.0466 240.259 28.6864V9.86882H247.224V27.6089C247.224 29.4817 247.737 30.9697 248.763 32.0728C249.79 33.1759 251.137 33.7275 252.804 33.7275C253.83 33.7275 254.824 33.4774 255.786 32.9771C256.748 32.4769 257.537 31.7329 258.153 30.7452C258.782 29.7447 259.096 28.494 259.096 26.9932Z" fill="white"/>
<path d="M209.67 39.4229H202.051L215.923 0.0175323H224.736L238.628 39.4229H231.008L220.483 8.0987H220.176L209.67 39.4229ZM209.92 23.9724H230.7V29.7062H209.92V23.9724Z" fill="white"/>
<path d="M175.584 39.4229V0.0175323H182.549V14.7561H182.838C183.197 14.0377 183.704 13.2745 184.358 12.4664C185.012 11.6454 185.897 10.9464 187.013 10.3691C188.129 9.77907 189.553 9.48405 191.285 9.48405C193.568 9.48405 195.627 10.0677 197.461 11.235C199.308 12.3894 200.77 14.1019 201.848 16.3723C202.938 18.6299 203.483 21.4006 203.483 24.6843C203.483 27.9296 202.951 30.6875 201.886 32.9579C200.822 35.2284 199.372 36.96 197.538 38.153C195.704 39.3459 193.626 39.9424 191.304 39.9424C189.611 39.9424 188.206 39.6602 187.09 39.0958C185.974 38.5314 185.076 37.8515 184.396 37.0562C183.729 36.2481 183.21 35.4849 182.838 34.7666H182.434V39.4229H175.584ZM182.415 24.6459C182.415 26.5571 182.684 28.2311 183.223 29.6677C183.774 31.1044 184.563 32.2268 185.589 33.0349C186.628 33.8302 187.885 34.2278 189.361 34.2278C190.9 34.2278 192.189 33.8174 193.228 32.9964C194.267 32.1626 195.049 31.0274 195.575 29.5908C196.114 28.1413 196.384 26.493 196.384 24.6459C196.384 22.8116 196.121 21.1825 195.595 19.7587C195.069 18.3349 194.286 17.2189 193.247 16.4108C192.208 15.6026 190.913 15.1986 189.361 15.1986C187.873 15.1986 186.609 15.5898 185.57 16.3723C184.531 17.1547 183.742 18.2515 183.203 19.6625C182.678 21.0735 182.415 22.7346 182.415 24.6459Z" fill="white"/>
<path d="M159.493 40C156.53 40 153.971 39.3842 151.816 38.1528C149.674 36.9086 148.026 35.1513 146.871 32.8808C145.717 30.5976 145.139 27.9103 145.139 24.8189C145.139 21.7788 145.717 19.1108 146.871 16.8147C148.038 14.5058 149.667 12.71 151.758 11.4272C153.849 10.1317 156.306 9.48392 159.128 9.48392C160.949 9.48392 162.668 9.77894 164.284 10.369C165.913 10.9462 167.35 11.8441 168.594 13.0627C169.851 14.2813 170.839 15.8334 171.557 17.719C172.275 19.5918 172.635 21.8237 172.635 24.4148V26.5506H148.41V21.8558H165.958C165.945 20.5218 165.657 19.3352 165.092 18.2962C164.528 17.2444 163.739 16.417 162.726 15.8142C161.725 15.2113 160.558 14.9098 159.224 14.9098C157.8 14.9098 156.549 15.2562 155.472 15.9489C154.394 16.6287 153.554 17.5266 152.951 18.6426C152.361 19.7457 152.06 20.9579 152.047 22.2791V26.3774C152.047 28.0963 152.361 29.5714 152.99 30.8028C153.618 32.0214 154.497 32.9578 155.626 33.612C156.754 34.2533 158.076 34.574 159.589 34.574C160.603 34.574 161.52 34.4329 162.341 34.1507C163.162 33.8557 163.874 33.426 164.476 32.8616C165.079 32.2972 165.535 31.5981 165.843 30.7643L172.346 31.4955C171.936 33.2143 171.153 34.7151 169.999 35.9979C168.857 37.2678 167.395 38.2555 165.612 38.9609C163.829 39.6536 161.789 40 159.493 40Z" fill="white"/>
<path d="M106.724 39.4228L95.603 0.0174789H103.28L110.38 28.975H110.746L118.327 0.0174789H125.311L132.911 28.9943H133.257L140.357 0.0174789H148.034L136.913 39.4228H129.871L121.982 11.7737H121.674L113.766 39.4228H106.724Z" fill="white"/>
</svg>
