<svg width="46" height="48" viewBox="0 0 46 48" fill="none" xmlns="http://www.w3.org/2000/svg">
<path fill-rule="evenodd" clip-rule="evenodd" d="M9.61272 3.97832C9.61272 6.17773 11.3889 7.9566 13.5757 7.9566L32.0502 7.9566C34.2412 7.9566 36.0132 6.17352 36.0132 3.97832C36.0132 1.7789 34.237 3.05176e-05 32.0502 3.05176e-05L13.5757 3.26744e-05C11.3847 3.27702e-05 9.61272 1.77891 9.61272 3.97832ZM0.271729 14.2162C0.271729 12.0295 2.0506 10.2533 4.25001 10.2533C6.44943 10.2533 8.2283 12.0253 8.2283 14.2162V32.6908C8.2283 34.8775 6.44943 36.6537 4.25001 36.6537C2.05481 36.6537 0.271729 34.8817 0.271729 32.6908V14.2162ZM37.3978 14.2162C37.3978 12.0295 39.1767 10.2533 41.3761 10.2533C43.5755 10.2533 45.3544 12.0253 45.3544 14.2162V32.6908C45.3544 34.8775 43.5755 36.6537 41.3761 36.6537C39.1809 36.6537 37.3978 34.8817 37.3978 32.6908V14.2162ZM26.776 48C24.5892 48 22.813 46.2212 22.813 44.0218C22.813 41.8265 24.5892 40.0435 26.776 40.0435H36.5828C38.7695 40.0435 40.5457 41.8265 40.5457 44.0218C40.5457 46.217 38.7737 48 36.5828 48H26.776Z" fill="black"/>
<path fill-rule="evenodd" clip-rule="evenodd" d="M9.61272 3.97832C9.61272 6.17773 11.3889 7.9566 13.5757 7.9566L32.0502 7.9566C34.2412 7.9566 36.0132 6.17352 36.0132 3.97832C36.0132 1.7789 34.237 3.05176e-05 32.0502 3.05176e-05L13.5757 3.26744e-05C11.3847 3.27702e-05 9.61272 1.77891 9.61272 3.97832ZM0.271729 14.2162C0.271729 12.0295 2.0506 10.2533 4.25001 10.2533C6.44943 10.2533 8.2283 12.0253 8.2283 14.2162V32.6908C8.2283 34.8775 6.44943 36.6537 4.25001 36.6537C2.05481 36.6537 0.271729 34.8817 0.271729 32.6908V14.2162ZM37.3978 14.2162C37.3978 12.0295 39.1767 10.2533 41.3761 10.2533C43.5755 10.2533 45.3544 12.0253 45.3544 14.2162V32.6908C45.3544 34.8775 43.5755 36.6537 41.3761 36.6537C39.1809 36.6537 37.3978 34.8817 37.3978 32.6908V14.2162ZM26.776 48C24.5892 48 22.813 46.2212 22.813 44.0218C22.813 41.8265 24.5892 40.0435 26.776 40.0435H36.5828C38.7695 40.0435 40.5457 41.8265 40.5457 44.0218C40.5457 46.217 38.7737 48 36.5828 48H26.776Z" fill="url(#paint0_linear_772_1430)"/>
<defs>
<linearGradient id="paint0_linear_772_1430" x1="0.271729" y1="24" x2="45.3544" y2="24" gradientUnits="userSpaceOnUse">
<stop stop-color="#4400E2"/>
<stop offset="1" stop-color="#20BF55"/>
</linearGradient>
</defs>
</svg>
