<svg width="46" height="48" viewBox="0 0 46 48" fill="none" xmlns="http://www.w3.org/2000/svg">
<path fill-rule="evenodd" clip-rule="evenodd" d="M19.0639 3.98701C19.0639 1.78701 20.8535 3.05176e-05 23.0663 3.05176e-05C25.279 3.05176e-05 27.0687 1.78279 27.0687 3.98701V27.3736C27.0687 29.5736 25.279 31.3606 23.0663 31.3606C20.8578 31.3606 19.0639 29.5778 19.0639 27.3736V3.98701ZM0.545898 3.98728C0.545898 1.78306 2.33979 0.000299072 4.54831 0.000299072C6.76107 0.000299072 8.55496 1.78306 8.55073 3.98728V39.9949H27.9194C30.1194 39.9949 31.9063 41.7846 31.9063 43.9973C31.9063 46.2101 30.1236 47.9997 27.9194 47.9997H4.59548C4.57978 47.9999 4.56406 48 4.54831 48C4.51987 48 4.4915 47.9997 4.46319 47.9991C3.40864 47.981 2.45312 47.5517 1.7498 46.8635C1.01253 46.1453 0.552607 45.1453 0.545971 44.0373C0.545841 44.024 0.545776 44.0107 0.545776 43.9973C0.545776 43.9868 0.545817 43.9762 0.545898 43.9657V3.98728ZM41.5853 3.05176e-05C39.3726 3.05176e-05 37.5829 1.78701 37.5829 3.98701V27.3736C37.5829 29.5778 39.3768 31.3606 41.5853 31.3606C43.7981 31.3606 45.5877 29.5736 45.5877 27.3736V3.98701C45.5877 1.78279 43.7981 3.05176e-05 41.5853 3.05176e-05Z" fill="url(#paint0_linear_772_762)"/>
<defs>
<linearGradient id="paint0_linear_772_762" x1="0.545776" y1="24" x2="45.5877" y2="6.121e-05" gradientUnits="userSpaceOnUse">
<stop stop-color="#4400E2"/>
<stop offset="0.421875" stop-color="#F94E6C"/>
<stop offset="1" stop-color="#FFCB00"/>
</linearGradient>
</defs>
</svg>
