<svg width="46" height="48" viewBox="0 0 46 48" fill="none" xmlns="http://www.w3.org/2000/svg">
<path fill-rule="evenodd" clip-rule="evenodd" d="M19.0639 3.98695C19.0639 1.78694 20.8535 -3.05176e-05 23.0663 -3.05176e-05C25.279 -3.05176e-05 27.0687 1.78273 27.0687 3.98695V27.3736C27.0687 29.5736 25.279 31.3605 23.0663 31.3605C20.8578 31.3605 19.0639 29.5778 19.0639 27.3736V3.98695ZM0.545898 3.98722C0.545898 1.783 2.33979 0.000238037 4.54831 0.000238037C6.76107 0.000238037 8.55496 1.783 8.55073 3.98722V39.9948H27.9194C30.1194 39.9948 31.9063 41.7845 31.9063 43.9973C31.9063 46.21 30.1236 47.9997 27.9194 47.9997H4.59548C4.57978 47.9998 4.56406 47.9999 4.54831 47.9999C4.51987 47.9999 4.4915 47.9996 4.46319 47.9991C3.40864 47.9809 2.45312 47.5516 1.7498 46.8634C1.01253 46.1452 0.552607 45.1453 0.545971 44.0373C0.545841 44.0239 0.545776 44.0106 0.545776 43.9973C0.545776 43.9867 0.545817 43.9761 0.545898 43.9656V3.98722ZM41.5853 -3.05176e-05C39.3726 -3.05176e-05 37.5829 1.78694 37.5829 3.98695V27.3736C37.5829 29.5778 39.3768 31.3605 41.5853 31.3605C43.7981 31.3605 45.5877 29.5736 45.5877 27.3736V3.98695C45.5877 1.78273 43.7981 -3.05176e-05 41.5853 -3.05176e-05Z" fill="white"/>
</svg>
