<svg width="261" height="64" viewBox="0 0 261 64" fill="none" xmlns="http://www.w3.org/2000/svg">
<path d="M235.615 12.8483L243.943 26.6978H244.239L252.604 12.8483H260.415L248.763 31.7574L260.6 50.6665H252.659L244.239 36.9094H243.943L235.523 50.6665H227.62L239.567 31.7574L227.767 12.8483H235.615Z" fill="black"/>
<path d="M216.063 12.8483V50.6665H209.378V12.8483H216.063Z" fill="black"/>
<path d="M190.801 51.239C189.004 51.239 187.385 50.919 185.944 50.2788C184.516 49.6263 183.384 48.6661 182.547 47.3981C181.722 46.1301 181.309 44.5667 181.309 42.7078C181.309 41.1074 181.605 39.784 182.196 38.7376C182.787 37.6912 183.593 36.8541 184.615 36.2263C185.637 35.5984 186.788 35.1245 188.068 34.8044C189.361 34.472 190.696 34.2319 192.075 34.0842C193.737 33.9119 195.085 33.758 196.119 33.6226C197.153 33.4748 197.904 33.2532 198.372 32.9578C198.852 32.65 199.092 32.1761 199.092 31.5359V31.4251C199.092 30.034 198.68 28.9568 197.855 28.1936C197.03 27.4303 195.842 27.0487 194.291 27.0487C192.654 27.0487 191.355 27.4057 190.395 28.1197C189.447 28.8337 188.807 29.677 188.474 30.6495L182.233 29.7632C182.725 28.0397 183.538 26.5994 184.67 25.4422C185.803 24.2727 187.188 23.3986 188.825 22.82C190.462 22.2291 192.272 21.9336 194.254 21.9336C195.621 21.9336 196.981 22.0937 198.335 22.4138C199.689 22.7338 200.926 23.2632 202.047 24.0018C203.167 24.7281 204.066 25.7191 204.743 26.9748C205.432 28.2305 205.777 29.8001 205.777 31.6836V50.6666H199.351V46.7703H199.129C198.723 47.5582 198.15 48.2968 197.412 48.9862C196.685 49.6633 195.768 50.2111 194.66 50.6297C193.565 51.0359 192.278 51.239 190.801 51.239ZM192.537 46.3271C193.879 46.3271 195.042 46.0624 196.027 45.5331C197.012 44.9914 197.769 44.2774 198.298 43.391C198.84 42.5047 199.111 41.5383 199.111 40.4919V37.1495C198.901 37.3219 198.544 37.4819 198.04 37.6297C197.547 37.7774 196.993 37.9067 196.378 38.0174C195.762 38.1282 195.153 38.2267 194.55 38.3129C193.946 38.3991 193.423 38.4729 192.98 38.5345C191.983 38.6699 191.09 38.8915 190.302 39.1993C189.514 39.507 188.893 39.9379 188.437 40.4919C187.982 41.0335 187.754 41.7352 187.754 42.597C187.754 43.8281 188.203 44.7575 189.102 45.3853C190.001 46.0132 191.146 46.3271 192.537 46.3271Z" fill="black"/>
<path d="M180.168 22.3028V27.4733H163.863V22.3028H180.168ZM167.889 15.5074H174.573V42.1352C174.573 43.0339 174.709 43.7233 174.98 44.2034C175.263 44.6712 175.632 44.9913 176.087 45.1636C176.543 45.336 177.048 45.4221 177.602 45.4221C178.02 45.4221 178.402 45.3914 178.747 45.3298C179.104 45.2683 179.374 45.2129 179.559 45.1636L180.685 50.3895C180.328 50.5126 179.818 50.648 179.153 50.7957C178.5 50.9435 177.7 51.0296 176.752 51.0542C175.078 51.1035 173.57 50.8511 172.228 50.2971C170.886 49.7309 169.821 48.8568 169.033 47.675C168.258 46.4932 167.876 45.0159 167.889 43.2432V15.5074Z" fill="black"/>
<path d="M150.858 51.2206C148.014 51.2206 145.558 50.6297 143.49 49.4478C141.434 48.2537 139.852 46.5672 138.744 44.3882C137.636 42.1969 137.082 39.6178 137.082 36.651C137.082 33.7334 137.636 31.1727 138.744 28.9692C139.864 26.7532 141.428 25.0298 143.434 23.7987C145.441 22.5553 147.798 21.9336 150.507 21.9336C152.255 21.9336 153.904 22.2168 155.456 22.7831C157.019 23.337 158.398 24.1988 159.592 25.3683C160.798 26.5378 161.746 28.0274 162.436 29.837C163.125 31.6344 163.47 33.7764 163.47 36.2632V38.3129H140.221V33.8072H157.062C157.05 32.5269 156.773 31.3882 156.231 30.391C155.69 29.3816 154.932 28.5875 153.96 28.0089C153 27.4303 151.879 27.141 150.599 27.141C149.233 27.141 148.032 27.4734 146.998 28.1382C145.964 28.7906 145.158 29.6524 144.579 30.7234C144.013 31.7821 143.724 32.9455 143.711 34.2135V38.1467C143.711 39.7963 144.013 41.212 144.616 42.3939C145.219 43.5634 146.063 44.4621 147.146 45.0899C148.229 45.7054 149.497 46.0132 150.95 46.0132C151.922 46.0132 152.803 45.8778 153.591 45.6069C154.378 45.3238 155.062 44.9114 155.64 44.3697C156.219 43.8281 156.656 43.1571 156.951 42.3569L163.193 43.0586C162.799 44.7083 162.048 46.1486 160.94 47.3797C159.844 48.5984 158.441 49.5463 156.73 50.2234C155.019 50.8882 153.061 51.2206 150.858 51.2206Z" fill="black"/>
<path d="M94.5913 12.8484H102.975L114.202 40.2518H114.645L125.873 12.8484H134.256V50.6666H127.682V24.685H127.331L116.88 50.5558H111.968L101.516 24.6296H101.165V50.6666H94.5913V12.8484Z" fill="black"/>
<path fill-rule="evenodd" clip-rule="evenodd" d="M7.05768 1.18091C5.48313 -0.393638 2.93027 -0.393638 1.35572 1.18091C-0.218833 2.75547 -0.218834 5.30832 1.35572 6.88287L22.8521 28.3793C24.4267 29.9538 26.9795 29.9538 28.5541 28.3793C30.1286 26.8047 30.1286 24.2519 28.5541 22.6773L7.05768 1.18091ZM9.78723 47.8304C8.21268 49.4049 8.21268 51.9578 9.78723 53.5323C11.3618 55.1069 13.9146 55.1069 15.4892 53.5323L28.1475 40.874C29.7221 39.2994 29.7221 36.7466 28.1475 35.172C26.573 33.5975 24.0201 33.5975 22.4456 35.172L9.78723 47.8304ZM35.7955 35.6207C37.3701 34.0461 39.9229 34.0461 41.4975 35.6207L62.9939 57.1171C64.5684 58.6916 64.5684 61.2445 62.9939 62.819C61.4193 64.3936 58.8665 64.3936 57.2919 62.819L35.7955 41.3227C34.221 39.7481 34.221 37.1952 35.7955 35.6207ZM35.332 22.2856C33.7575 23.8601 33.7575 26.413 35.332 27.9876C36.9066 29.5621 39.4594 29.5621 41.034 27.9876L46.3938 22.6277C47.9684 21.0532 47.9684 18.5003 46.3938 16.9258C44.8193 15.3512 42.2664 15.3512 40.6919 16.9258L35.332 22.2856Z" fill="url(#paint0_linear_772_781)"/>
<defs>
<linearGradient id="paint0_linear_772_781" x1="6.87843" y1="41.6873" x2="96.0647" y2="7.52987" gradientUnits="userSpaceOnUse">
<stop stop-color="#4400E2"/>
<stop offset="0.4977" stop-color="#F54C6F"/>
<stop offset="1" stop-color="#F94E6C"/>
</linearGradient>
</defs>
</svg>
