<svg width="261" height="64" viewBox="0 0 261 64" fill="none" xmlns="http://www.w3.org/2000/svg">
<path d="M235.615 12.8482L243.943 26.6976H244.239L252.604 12.8482H260.415L248.763 31.7573L260.6 50.6664H252.659L244.239 36.9093H243.943L235.523 50.6664H227.62L239.567 31.7573L227.767 12.8482H235.615Z" fill="white"/>
<path d="M216.063 12.8482V50.6664H209.378V12.8482H216.063Z" fill="white"/>
<path d="M190.801 51.2389C189.004 51.2389 187.385 50.9188 185.944 50.2786C184.516 49.6262 183.384 48.666 182.547 47.398C181.722 46.13 181.309 44.5665 181.309 42.7076C181.309 41.1072 181.605 39.7838 182.196 38.7374C182.787 37.691 183.593 36.8539 184.615 36.2261C185.637 35.5982 186.788 35.1243 188.068 34.8042C189.361 34.4718 190.696 34.2318 192.075 34.084C193.737 33.9117 195.085 33.7578 196.119 33.6224C197.153 33.4747 197.904 33.2531 198.372 32.9576C198.852 32.6499 199.092 32.1759 199.092 31.5357V31.4249C199.092 30.0339 198.68 28.9567 197.855 28.1934C197.03 27.4302 195.842 27.0485 194.291 27.0485C192.654 27.0485 191.355 27.4055 190.395 28.1196C189.447 28.8336 188.807 29.6768 188.474 30.6494L182.233 29.763C182.725 28.0395 183.538 26.5992 184.67 25.442C185.803 24.2725 187.188 23.3984 188.825 22.8198C190.462 22.2289 192.272 21.9335 194.254 21.9335C195.621 21.9335 196.981 22.0935 198.335 22.4136C199.689 22.7337 200.926 23.263 202.047 24.0017C203.167 24.728 204.066 25.719 204.743 26.9747C205.432 28.2303 205.777 29.7999 205.777 31.6835V50.6664H199.351V46.7701H199.129C198.723 47.558 198.15 48.2966 197.412 48.986C196.685 49.6631 195.768 50.2109 194.66 50.6295C193.565 51.0357 192.278 51.2389 190.801 51.2389ZM192.537 46.3269C193.879 46.3269 195.042 46.0623 196.027 45.5329C197.012 44.9912 197.769 44.2772 198.298 43.3909C198.84 42.5045 199.111 41.5381 199.111 40.4917V37.1494C198.901 37.3217 198.544 37.4818 198.04 37.6295C197.547 37.7772 196.993 37.9065 196.378 38.0173C195.762 38.1281 195.153 38.2266 194.55 38.3127C193.946 38.3989 193.423 38.4728 192.98 38.5343C191.983 38.6697 191.09 38.8913 190.302 39.1991C189.514 39.5069 188.893 39.9377 188.437 40.4917C187.982 41.0334 187.754 41.7351 187.754 42.5968C187.754 43.8279 188.203 44.7573 189.102 45.3852C190.001 46.013 191.146 46.3269 192.537 46.3269Z" fill="white"/>
<path d="M180.168 22.3027V27.4731H163.863V22.3027H180.168ZM167.889 15.5072H174.573V42.135C174.573 43.0337 174.709 43.7231 174.98 44.2032C175.263 44.671 175.632 44.9911 176.087 45.1635C176.543 45.3358 177.048 45.422 177.602 45.422C178.02 45.422 178.402 45.3912 178.747 45.3296C179.104 45.2681 179.374 45.2127 179.559 45.1635L180.685 50.3893C180.328 50.5124 179.818 50.6478 179.153 50.7956C178.5 50.9433 177.7 51.0295 176.752 51.0541C175.078 51.1033 173.57 50.851 172.228 50.297C170.886 49.7307 169.821 48.8566 169.033 47.6748C168.258 46.493 167.876 45.0157 167.889 43.243V15.5072Z" fill="white"/>
<path d="M150.858 51.2204C148.014 51.2204 145.558 50.6295 143.49 49.4477C141.434 48.2535 139.852 46.567 138.744 44.388C137.636 42.1967 137.082 39.6177 137.082 36.6508C137.082 33.7332 137.636 31.1726 138.744 28.969C139.864 26.7531 141.428 25.0296 143.434 23.7985C145.441 22.5552 147.798 21.9335 150.507 21.9335C152.255 21.9335 153.904 22.2166 155.456 22.7829C157.019 23.3369 158.398 24.1986 159.592 25.3681C160.798 26.5376 161.746 28.0272 162.436 29.8369C163.125 31.6342 163.47 33.7763 163.47 36.263V38.3127H140.221V33.8071H157.062C157.05 32.5267 156.773 31.388 156.231 30.3909C155.69 29.3814 154.932 28.5874 153.96 28.0088C153 27.4302 151.879 27.1409 150.599 27.1409C149.233 27.1409 148.032 27.4732 146.998 28.138C145.964 28.7905 145.158 29.6522 144.579 30.7232C144.013 31.782 143.724 32.9453 143.711 34.2133V38.1465C143.711 39.7962 144.013 41.2119 144.616 42.3937C145.219 43.5632 146.063 44.4619 147.146 45.0897C148.229 45.7053 149.497 46.013 150.95 46.013C151.922 46.013 152.803 45.8776 153.591 45.6068C154.378 45.3236 155.062 44.9112 155.64 44.3696C156.219 43.8279 156.656 43.157 156.951 42.3568L163.193 43.0585C162.799 44.7081 162.048 46.1484 160.94 47.3795C159.844 48.5982 158.441 49.5462 156.73 50.2232C155.019 50.888 153.061 51.2204 150.858 51.2204Z" fill="white"/>
<path d="M94.5913 12.8482H102.975L114.202 40.2517H114.645L125.873 12.8482H134.256V50.6664H127.682V24.6849H127.331L116.88 50.5556H111.968L101.516 24.6295H101.165V50.6664H94.5913V12.8482Z" fill="white"/>
<path fill-rule="evenodd" clip-rule="evenodd" d="M7.05768 1.18076C5.48313 -0.393791 2.93027 -0.39379 1.35572 1.18076C-0.218833 2.75531 -0.218834 5.30817 1.35572 6.88272L22.8521 28.3791C24.4267 29.9537 26.9795 29.9537 28.5541 28.3791C30.1286 26.8046 30.1286 24.2517 28.5541 22.6771L7.05768 1.18076ZM9.78723 47.8302C8.21268 49.4048 8.21268 51.9576 9.78723 53.5322C11.3618 55.1067 13.9146 55.1067 15.4892 53.5322L28.1475 40.8738C29.7221 39.2993 29.7221 36.7464 28.1475 35.1719C26.573 33.5973 24.0201 33.5973 22.4456 35.1719L9.78723 47.8302ZM35.7955 35.6205C37.3701 34.046 39.9229 34.046 41.4975 35.6205L62.9939 57.1169C64.5684 58.6915 64.5684 61.2443 62.9939 62.8189C61.4193 64.3934 58.8665 64.3934 57.2919 62.8189L35.7955 41.3225C34.221 39.7479 34.221 37.1951 35.7955 35.6205ZM35.332 22.2854C33.7575 23.86 33.7575 26.4129 35.332 27.9874C36.9066 29.562 39.4594 29.562 41.034 27.9874L46.3938 22.6276C47.9684 21.053 47.9684 18.5002 46.3938 16.9256C44.8193 15.3511 42.2664 15.3511 40.6919 16.9256L35.332 22.2854Z" fill="white"/>
</svg>
