<svg width="180" height="48" viewBox="0 0 180 48" fill="none" xmlns="http://www.w3.org/2000/svg">
<path d="M18.62 12.6758L24.7437 27.6076H25.0269L31.1506 12.6758H38.3687V36.7941H32.6921V21.9796H32.4918L26.6979 36.6404H23.0707L17.2768 21.8967H17.0765V36.7941H11.3999V12.6758H18.618H18.62Z" fill="black"/>
<path d="M39.9954 27.8201C39.9954 22.2143 43.5053 18.4697 48.9694 18.4697C54.1038 18.4697 57.7311 21.743 57.7311 27.7028V29.1391H45.6719V29.2928C45.6719 31.506 47.0375 32.9788 49.2527 32.9788C50.7598 32.9788 51.9372 32.3314 52.3843 31.1297L57.6724 31.2835C57.0129 34.8399 53.8914 37.1361 49.1454 37.1361C43.4567 37.1361 39.9954 33.614 39.9954 27.8201ZM52.3721 25.7951C52.3479 23.946 50.9823 22.627 49.0868 22.627C47.1912 22.627 45.7549 23.9925 45.6719 25.7951H52.3721Z" fill="black"/>
<path d="M69.5676 22.9447H66.3045V31.1056C66.3045 32.1778 66.8345 32.5541 67.7651 32.5541C68.2 32.5541 68.7786 32.4367 69.0254 32.378L69.8973 36.5353C69.343 36.6992 68.3437 36.9824 66.9538 37.0532C62.8916 37.2414 60.5126 35.4045 60.547 31.7428V22.9468H58.1558V18.7065H60.547V14.3732H66.3065V18.7065H69.5696V22.9468L69.5676 22.9447Z" fill="black"/>
<path d="M70.3343 31.7771C70.3343 27.7736 73.3971 26.4181 77.0588 26.1127C80.1439 25.8416 81.3456 25.6069 81.3456 24.4983V24.4396C81.3456 23.2258 80.4514 22.5441 79.0373 22.5441C77.518 22.5441 76.5652 23.2501 76.3163 24.4052L71.0059 24.2171C71.4652 20.9196 74.2205 18.4697 79.0838 18.4697C83.6882 18.4697 87.0909 20.6728 87.0909 24.4983V36.7921H81.6733V34.2715H81.5317C80.5424 36.1205 78.8006 37.0976 76.2799 37.0976C72.8186 37.0976 70.3323 35.3538 70.3323 31.7751L70.3343 31.7771ZM81.3799 30.363V28.6435C80.7326 28.9853 79.4136 29.22 78.3414 29.3738C76.7048 29.6206 75.7863 30.3286 75.7863 31.4939C75.7863 32.6591 76.729 33.3308 78.0582 33.3308C79.8951 33.3308 81.3799 32.1291 81.3799 30.363Z" fill="black"/>
<path d="M95.0312 36.7941H89.2717V12.6758H95.0312V36.7941Z" fill="black"/>
<path d="M103.113 36.7941H97.3538V12.6758H103.113V36.7941Z" fill="black"/>
<path d="M105.367 13.8432C105.367 12.3239 106.698 11.1 108.323 11.1C109.947 11.1 111.278 12.3239 111.278 13.8432C111.278 15.3625 109.959 16.5985 108.323 16.5985C106.686 16.5985 105.367 15.3625 105.367 13.8432ZM105.438 18.7065H111.197V36.7943H105.438V18.7065Z" fill="black"/>
<path d="M112.824 27.8101C112.824 22.263 116.263 18.4719 121.95 18.4719C126.979 18.4719 130.228 21.3688 130.357 25.8195H124.976C124.751 23.9704 123.681 22.8517 122.032 22.8517C120.02 22.8517 118.688 24.5591 118.688 27.7514C118.688 30.9437 120.007 32.6734 122.032 32.6734C123.61 32.6734 124.766 31.6255 124.976 29.7057H130.357C130.203 34.1806 127.048 37.1362 121.962 37.1362C116.239 37.1362 112.824 33.3329 112.824 27.8101Z" fill="black"/>
<path d="M143.656 18.7065H149.404V36.7943H143.915V33.4259H143.727C142.926 35.6391 140.913 37.0289 138.204 37.0289C134.482 37.0289 131.998 34.3201 131.986 30.2336V18.7045H137.745V29.1028C137.757 31.0691 138.84 32.2708 140.606 32.2708C142.372 32.2708 143.656 31.0934 143.656 28.9854V18.7045V18.7065Z" fill="black"/>
<path d="M162.242 24.3711C162.078 23.2281 161.018 22.4169 159.499 22.4169C158.167 22.4169 157.097 22.9813 157.107 23.8998C157.095 24.5937 157.591 25.1358 159.12 25.4413L162.606 26.1008C166.209 26.7947 167.953 28.3625 167.975 31.0005C167.951 34.7208 164.431 37.1363 159.59 37.1363C154.419 37.1363 151.346 34.8402 150.933 31.2595L156.622 31.1179C156.869 32.4369 157.975 33.1429 159.614 33.1429C161.087 33.1429 162.098 32.5421 162.122 31.6358C162.098 30.8346 161.416 30.3633 159.921 30.0699L156.765 29.4691C153.15 28.7975 151.372 27.0071 151.396 24.2275C151.372 20.6002 154.494 18.468 159.393 18.468C164.293 18.468 167.224 20.6468 167.53 24.2275L162.242 24.3691V24.3711Z" fill="black"/>
<path d="M0 0V48H179.611V0H0ZM5.75951 41.8177V6.18232H173.852V41.8177H5.75951Z" fill="black"/>
</svg>
